<svg width="485" height="264" viewBox="0 0 485 264" fill="none" xmlns="http://www.w3.org/2000/svg">
<g clip-path="url(#clip0)">
<path d="M244.056 264C375.568 264 482.179 256.935 482.179 248.22C482.179 239.505 375.568 232.44 244.056 232.44C112.544 232.44 5.93311 239.505 5.93311 248.22C5.93311 256.935 112.544 264 244.056 264Z" fill="#F2F2F2"/>
<path d="M234.93 75.4677C196.133 75.4677 168.277 100.384 168.277 158.522C168.277 224.411 196.133 241.852 234.93 241.852C273.726 241.852 303.241 222.75 303.241 158.522C303.241 89.8637 273.726 75.4677 234.93 75.4677ZM235.185 219.981C208.313 219.981 194.275 204.201 194.275 158.564C194.275 118.297 208.888 97.0617 235.759 97.0617C262.631 97.0617 277.244 111.01 277.244 158.564C277.244 203.05 262.056 219.981 235.185 219.981Z" fill="#2F2E41"/>
<path d="M145.046 195.896H129.005V148.612C129.005 146.1 128.008 143.692 126.234 141.916C124.46 140.14 122.054 139.142 119.545 139.142H115.786C114.544 139.142 113.314 139.387 112.166 139.863C111.019 140.339 109.976 141.037 109.097 141.916C108.219 142.795 107.522 143.839 107.047 144.988C106.571 146.137 106.327 147.368 106.327 148.612V195.896H61.081C60.1502 195.896 59.2352 195.655 58.4247 195.197C57.6143 194.738 56.936 194.078 56.4555 193.28C55.9751 192.482 55.7088 191.573 55.6826 190.642C55.6564 189.711 55.8712 188.788 56.306 187.965L104.194 97.2367C104.791 96.1055 105.152 94.865 105.257 93.59C105.362 92.315 105.208 91.0319 104.804 89.8183C104.4 88.6046 103.754 87.4855 102.906 86.5285C102.058 85.5716 101.024 84.7965 99.8688 84.2503L97.0419 82.914C94.8468 81.8764 92.3373 81.7231 90.0325 82.486C87.7277 83.2489 85.8042 84.8695 84.6598 87.0125L26.2546 196.381C25.2601 198.244 24.7397 200.323 24.7397 202.435C24.7397 204.121 25.0715 205.791 25.7162 207.348C26.3608 208.906 27.3057 210.322 28.4968 211.514C29.6879 212.707 31.102 213.652 32.6583 214.298C34.2146 214.943 35.8826 215.275 37.5672 215.275H106.327V245.174C106.327 246.665 106.62 248.141 107.19 249.518C107.76 250.895 108.595 252.147 109.648 253.201C110.701 254.255 111.951 255.091 113.326 255.661C114.702 256.232 116.177 256.525 117.666 256.525C119.155 256.525 120.629 256.232 122.005 255.661C123.381 255.091 124.631 254.255 125.684 253.201C126.737 252.147 127.572 250.895 128.142 249.518C128.712 248.141 129.005 246.665 129.005 245.174V215.275H145.046C147.613 215.275 150.075 214.254 151.89 212.437C153.706 210.62 154.726 208.155 154.726 205.585C154.726 203.016 153.706 200.551 151.89 198.734C150.075 196.917 147.613 195.896 145.046 195.896Z" fill="#F57C00"/>
<path d="M442.077 195.896H426.036V148.612C426.036 146.1 425.04 143.692 423.266 141.916C421.492 140.14 419.086 139.142 416.577 139.142H412.818C411.576 139.142 410.346 139.387 409.198 139.863C408.05 140.339 407.007 141.037 406.129 141.916C405.25 142.795 404.554 143.839 404.078 144.988C403.603 146.137 403.358 147.368 403.358 148.612V195.896H358.112C357.182 195.896 356.267 195.655 355.456 195.197C354.646 194.738 353.967 194.078 353.487 193.28C353.007 192.482 352.74 191.573 352.714 190.642C352.688 189.711 352.903 188.788 353.337 187.965L401.225 97.2367C401.822 96.1055 402.184 94.865 402.289 93.59C402.394 92.315 402.239 91.0319 401.835 89.8183C401.431 88.6046 400.785 87.4855 399.937 86.5285C399.089 85.5716 398.056 84.7965 396.9 84.2503L394.073 82.914C391.878 81.8764 389.369 81.7231 387.064 82.486C384.759 83.2489 382.836 84.8695 381.691 87.0125L323.286 196.381C322.292 198.244 321.771 200.323 321.771 202.435V202.435C321.771 205.84 323.123 209.106 325.528 211.514C327.934 213.922 331.197 215.275 334.599 215.275H403.358V245.174C403.358 248.185 404.553 251.072 406.679 253.201C408.806 255.329 411.69 256.525 414.697 256.525V256.525C417.705 256.525 420.589 255.329 422.715 253.201C424.842 251.072 426.036 248.185 426.036 245.174V215.275H442.077C444.644 215.275 447.107 214.254 448.922 212.437C450.737 210.62 451.757 208.155 451.757 205.585V205.585C451.757 203.016 450.737 200.551 448.922 198.734C447.107 196.917 444.645 195.896 442.077 195.896Z" fill="#F57C00"/>
<path d="M149.471 190.359H133.43V143.075C133.43 141.831 133.185 140.6 132.71 139.451C132.235 138.302 131.538 137.258 130.659 136.379C129.781 135.5 128.738 134.802 127.59 134.326C126.443 133.85 125.212 133.605 123.97 133.605H120.212C117.703 133.605 115.296 134.603 113.522 136.379C111.748 138.155 110.752 140.563 110.752 143.075V190.359H65.506C64.5752 190.359 63.6602 190.118 62.8498 189.66C62.0393 189.202 61.361 188.541 60.8806 187.743C60.4001 186.945 60.1339 186.036 60.1077 185.105C60.0815 184.174 60.2962 183.251 60.7311 182.428L108.619 91.6998C109.216 90.5686 109.577 89.3281 109.682 88.0531C109.787 86.7781 109.633 85.495 109.229 84.2814C108.825 83.0677 108.179 81.9486 107.331 80.9916C106.483 80.0346 105.449 79.2596 104.294 78.7133L101.467 77.377C99.2719 76.3394 96.7623 76.1862 94.4576 76.9491C92.1528 77.712 90.2292 79.3326 89.0848 81.4755L30.6797 190.844C29.6851 192.707 29.1648 194.786 29.1648 196.898V196.898C29.1648 200.303 30.5163 203.569 32.9219 205.977C35.3275 208.385 38.5902 209.738 41.9922 209.738H110.752V239.638C110.752 241.128 111.045 242.604 111.615 243.981C112.185 245.358 113.02 246.61 114.073 247.664C115.126 248.718 116.376 249.554 117.752 250.124C119.127 250.695 120.602 250.988 122.091 250.988H122.091C125.098 250.988 127.982 249.792 130.109 247.664C132.235 245.535 133.43 242.648 133.43 239.638V209.738H149.471C150.742 209.738 152.001 209.487 153.175 209.001C154.35 208.514 155.417 207.8 156.316 206.9C157.214 206 157.927 204.932 158.414 203.757C158.9 202.581 159.151 201.321 159.151 200.049V200.049C159.151 198.776 158.9 197.516 158.414 196.34C157.927 195.165 157.214 194.097 156.316 193.197C155.417 192.297 154.35 191.583 153.175 191.096C152.001 190.61 150.742 190.359 149.471 190.359V190.359Z" stroke="#3F3D56" stroke-miterlimit="10"/>
<path d="M450.374 190.359H434.333V143.075C434.333 140.563 433.337 138.155 431.563 136.379C429.789 134.603 427.382 133.605 424.873 133.605H421.115C419.873 133.605 418.642 133.85 417.495 134.326C416.347 134.802 415.304 135.5 414.426 136.379C413.547 137.258 412.85 138.302 412.375 139.451C411.9 140.6 411.655 141.831 411.655 143.075V190.359H366.409C365.478 190.359 364.564 190.118 363.753 189.66C362.943 189.202 362.264 188.541 361.784 187.743C361.303 186.945 361.037 186.036 361.011 185.105C360.985 184.174 361.2 183.251 361.634 182.428L409.522 91.6998C410.119 90.5686 410.481 89.3281 410.586 88.0531C410.691 86.7781 410.536 85.495 410.132 84.2814C409.728 83.0677 409.082 81.9486 408.234 80.9916C407.386 80.0346 406.353 79.2596 405.197 78.7133L402.37 77.377C400.175 76.3394 397.666 76.1862 395.361 76.9491C393.056 77.712 391.133 79.3326 389.988 81.4755L331.583 190.844C330.588 192.707 330.068 194.786 330.068 196.898C330.068 200.303 331.42 203.569 333.825 205.977C336.231 208.385 339.493 209.738 342.896 209.738H411.655V239.638C411.655 242.648 412.85 245.535 414.976 247.664C417.103 249.792 419.987 250.988 422.994 250.988V250.988C426.001 250.988 428.886 249.792 431.012 247.664C433.139 245.535 434.333 242.648 434.333 239.638V209.738H450.374C451.645 209.738 452.904 209.487 454.078 209.001C455.253 208.514 456.32 207.8 457.219 206.9C458.118 206 458.831 204.932 459.317 203.757C459.804 202.581 460.054 201.321 460.054 200.049V200.049C460.054 197.479 459.034 195.014 457.219 193.197C455.404 191.38 452.941 190.359 450.374 190.359V190.359Z" stroke="#3F3D56" stroke-miterlimit="10"/>
<path d="M243.78 70.4845C204.983 70.4845 177.127 95.4006 177.127 153.538C177.127 219.428 204.983 236.869 243.78 236.869C282.577 236.869 312.092 217.767 312.092 153.538C312.092 84.8805 282.576 70.4845 243.78 70.4845ZM244.035 214.998C217.163 214.998 203.125 199.217 203.125 153.581C203.125 113.313 217.738 92.0785 244.61 92.0785C271.481 92.0785 286.094 106.027 286.094 153.581C286.094 198.067 270.906 214.998 244.035 214.998V214.998Z" stroke="#3F3D56" stroke-miterlimit="10"/>
<path d="M212.682 14.0767C215.898 14.0767 218.506 11.4666 218.506 8.24694C218.506 5.02727 215.898 2.41721 212.682 2.41721C209.465 2.41721 206.858 5.02727 206.858 8.24694C206.858 11.4666 209.465 14.0767 212.682 14.0767Z" fill="#2F2E41"/>
<path d="M226.886 42.3722C235.908 42.3722 243.221 32.8869 243.221 21.1861C243.221 9.48534 235.908 0 226.886 0C217.865 0 210.551 9.48534 210.551 21.1861C210.551 32.8869 217.865 42.3722 226.886 42.3722Z" fill="#2F2E41"/>
<path opacity="0.1" d="M226.886 35.9737C218.703 35.9737 211.926 28.1696 210.736 17.9868C210.613 19.0488 210.551 20.117 210.551 21.1861C210.551 32.8868 217.865 42.3722 226.886 42.3722C235.908 42.3722 243.221 32.8869 243.221 21.1861C243.222 20.117 243.16 19.0488 243.036 17.9868C241.847 28.1696 235.069 35.9737 226.886 35.9737Z" fill="black"/>
<path d="M260.126 83.2305C259.775 84.6735 258.263 85.8292 256.588 86.6367C253.066 88.3343 248.721 88.8409 244.508 89.0109C243.433 89.0763 242.354 89.0564 241.283 88.9513C239.206 88.7502 237.257 87.8536 235.752 86.4066C235.645 86.3365 235.557 86.2403 235.497 86.127C235.437 86.0137 235.406 85.8869 235.408 85.7586C235.41 85.6303 235.444 85.5045 235.508 85.3931C235.572 85.2817 235.663 85.1882 235.772 85.1215C238.015 82.6548 241.759 81.1423 245.53 80.0532C248.39 79.2274 253.376 77.0885 256.495 77.3772C259.516 77.6568 260.569 81.4085 260.126 83.2305Z" fill="#3F3D56"/>
<path opacity="0.1" d="M260.126 83.2305C259.775 84.6735 258.263 85.8292 256.588 86.6367C253.066 88.3343 248.721 88.8409 244.508 89.0109C243.433 89.0763 242.354 89.0564 241.283 88.9513C239.206 88.7502 237.257 87.8536 235.752 86.4066C235.645 86.3365 235.557 86.2403 235.497 86.127C235.437 86.0137 235.406 85.8869 235.408 85.7586C235.41 85.6303 235.444 85.5045 235.508 85.3931C235.572 85.2817 235.663 85.1882 235.772 85.1215C238.015 82.6548 241.759 81.1423 245.53 80.0532C248.39 79.2274 253.376 77.0885 256.495 77.3772C259.516 77.6568 260.569 81.4085 260.126 83.2305Z" fill="black"/>
<path d="M215.346 72.4454C214.271 74.5545 214.077 77.0046 214.805 79.2573C215.546 81.493 216.933 83.4583 218.791 84.9043C223.348 88.5607 229.619 89.0639 235.459 89.0131C240.578 88.9686 245.689 88.6179 250.765 87.963C252.466 87.8121 254.138 87.4236 255.731 86.8088C257.637 85.9833 259.312 84.4692 259.991 82.5043C260.669 80.5395 260.188 78.1336 258.576 76.8223C257.16 75.6702 255.207 75.5117 253.386 75.4021L242.964 74.7752C243.993 73.7321 245.364 73.1421 246.618 72.3838C248.282 71.3777 249.387 69.6885 250.597 68.1656C252.46 65.9359 254.488 63.8489 256.663 61.9221C257.002 63.8698 258.233 65.4692 259.682 66.8132C261.13 68.1571 262.8 69.239 264.306 70.5186C267.953 73.6177 270.579 77.824 274.414 80.686C277.053 79.992 279.519 78.7594 281.659 77.0655L280.168 74.3626C280.044 74.0845 279.851 73.8429 279.606 73.6609C279.185 73.4011 278.641 73.535 278.151 73.4615C276.841 73.2649 276.269 71.7516 275.755 70.53C274.345 67.1763 271.644 64.5743 269.337 61.7619C267.635 59.6858 266.124 57.459 264.825 55.109C264.05 53.7074 263.341 52.2481 262.289 51.0406C261.238 49.8332 259.764 48.8838 258.164 48.8804C256.75 48.8775 255.446 49.596 254.23 50.3188C250.527 52.5204 246.965 54.95 243.563 57.5935C241.783 58.977 240.013 60.4387 237.925 61.2871C237.046 61.6443 236.119 61.8884 235.276 62.3229C233.798 63.0841 232.677 64.3719 231.47 65.5151C227.164 69.5924 221.269 72.2341 215.346 72.4454Z" fill="#3F3D56"/>
<path d="M237.139 43.4244C237.09 44.6707 236.826 45.8991 236.356 47.0545C236.118 47.6307 235.764 48.1517 235.316 48.5849C234.868 49.0182 234.336 49.3544 233.752 49.5726C232.924 49.7948 232.055 49.823 231.214 49.6551C230.481 49.5784 229.774 49.3374 229.146 48.9498C228.169 48.2773 227.682 47.0772 227.504 45.9027C227.326 44.7297 227.406 43.531 227.292 42.3494C227.182 41.3951 227 40.4502 226.75 39.5227C226.673 39.2142 226.595 38.9071 226.518 38.5999C226.443 38.2928 226.369 37.9857 226.301 37.6786C226.238 37.3899 226.18 37.0998 226.13 36.8084C226.089 36.5624 226.052 36.315 226.025 36.0661C226 35.3284 225.878 34.5974 225.66 33.8921C225.456 33.4347 225.201 33.002 224.899 32.6024C224.77 32.4176 224.645 32.2327 224.53 32.0408C224.197 31.5419 224.042 30.9452 224.091 30.3473C224.104 30.2549 224.127 30.1639 224.157 30.0757C224.169 30.0416 224.181 30.0075 224.196 29.9748C224.324 29.9401 224.441 29.8746 224.538 29.7842C224.634 29.6937 224.708 29.581 224.751 29.4558C224.8 29.1868 224.777 28.9096 224.684 28.6524C224.578 28.293 224.433 27.9463 224.251 27.6187C224.132 27.4026 223.727 27.013 223.724 26.7655C223.718 26.2679 224.69 25.8669 225.084 25.6707C226.285 25.0687 227.624 24.7968 228.964 24.883C229.824 24.9413 230.755 25.2057 231.23 25.9266C231.656 26.5764 231.599 27.4182 231.781 28.1732C231.8 28.283 231.846 28.3861 231.916 28.4732C232.009 28.5578 232.125 28.6114 232.25 28.6268C232.46 28.6687 232.676 28.6773 232.889 28.6524H232.89C232.947 28.6479 233.003 28.6398 233.058 28.6282C233.39 28.5669 233.703 28.4313 233.976 28.2315C234.152 28.1846 234.329 28.1462 234.508 28.1163C234.515 28.1156 234.523 28.1142 234.529 28.1121C235.241 30.3601 235.333 32.7702 235.916 35.0594C236.204 36.1983 236.618 37.323 236.676 38.4947C236.68 38.5459 236.681 38.5985 236.683 38.6511C236.691 39.0279 236.662 39.4075 236.677 39.7829C236.683 39.9519 236.702 40.1203 236.734 40.2862C236.798 40.5532 236.877 40.8162 236.971 41.074L236.975 41.0868C237.002 41.1692 237.028 41.2531 237.049 41.337C237.065 41.3982 237.079 41.4579 237.091 41.519L237.092 41.5233C237.197 42.1516 237.213 42.7916 237.139 43.4244V43.4244Z" fill="#FBBEBE"/>
<path d="M227.17 28.7221C231.799 28.7221 235.551 24.9662 235.551 20.333C235.551 15.6998 231.799 11.9438 227.17 11.9438C222.542 11.9438 218.79 15.6998 218.79 20.333C218.79 24.9662 222.542 28.7221 227.17 28.7221Z" fill="#FBBEBE"/>
<path d="M280.377 66.0409C280.134 63.7521 279.321 61.5609 278.013 59.668C278.231 60.9619 278.449 62.2554 278.667 63.5483C278.396 63.6269 278.107 63.6245 277.837 63.5414C277.567 63.4583 277.327 63.2981 277.147 63.0805C276.794 62.6395 276.524 62.1379 276.35 61.6004C275.398 59.2343 274.153 56.9973 272.644 54.9417C267.309 54.4966 262.035 52.2827 257.343 49.702C252.65 47.1227 248.258 44.0301 243.627 41.3413C242.825 40.8556 241.988 40.4279 241.124 40.0616C239.676 39.4801 238.049 39.1786 236.676 38.4947C236.583 38.4492 236.491 38.4009 236.4 38.3511C236.09 38.1822 235.796 37.9846 235.522 37.761C235.374 37.6408 235.234 37.5116 235.102 37.3742C234.416 36.5761 233.873 35.6662 233.495 34.684C232.758 33.0517 232.495 31.0824 231.76 29.4501C232.098 29.1337 232.478 28.8653 232.889 28.6524H232.89C232.95 28.6211 233.009 28.5913 233.071 28.5628C233.362 28.4256 233.665 28.3147 233.975 28.2315C234.152 28.1846 234.329 28.1462 234.508 28.1164C234.515 28.1156 234.522 28.1142 234.529 28.1121C235.359 27.9767 236.21 28.044 237.008 28.3083C238.176 28.7036 239.16 29.4927 240.142 30.2392C241.736 31.3638 243.266 32.5781 244.722 33.8764C245.532 34.6527 246.271 35.5059 247.142 36.2111C247.865 36.7701 248.628 37.2762 249.424 37.7255C254.136 40.5351 258.848 43.3443 263.56 46.153C265.156 47.1042 266.752 48.0555 268.312 49.0621C270.681 50.5921 272.965 52.25 275.248 53.9065C276.593 54.8819 277.938 55.8578 279.282 56.8342C279.723 57.1158 280.11 57.4741 280.425 57.8921C280.704 58.3666 280.877 58.8958 280.932 59.4433C281.27 61.6556 281.08 63.9164 280.377 66.0409V66.0409Z" fill="#FBBEBE"/>
<path d="M239.217 49.7333C238.652 52.2714 236.089 53.8056 234.75 56.0351C233.085 58.8021 233.764 62.0184 234.389 65.1878C233.247 66.1732 232.104 67.1585 230.961 68.1439C230.331 68.6856 229.7 69.2302 229.021 69.7094C228.031 70.3734 226.996 70.9682 225.924 71.4896C224.913 72.01 223.902 72.5309 222.89 73.0522C221.95 73.5814 220.954 74.004 219.92 74.312C217.927 74.8239 215.811 74.4656 213.839 73.8727C213.607 73.8116 213.383 73.7203 213.174 73.6011C213.051 73.5277 212.944 73.4305 212.859 73.3153C212.665 72.9664 212.594 72.562 212.659 72.1678C212.859 68.8463 213.67 65.5944 214.478 62.3668C214.91 60.4304 215.491 58.5303 216.216 56.6835C216.926 55.101 217.743 53.5685 218.66 52.0965C219.673 50.2444 220.872 48.501 222.24 46.8938C222.906 46.2752 223.466 45.5519 223.899 44.7524C224.403 43.6007 224.209 42.2798 224.311 41.0257C224.389 40.0834 224.639 39.1635 225.048 38.3113V38.3099C225.267 37.8509 225.53 37.4146 225.835 37.0074C225.973 37.3288 226.11 37.6496 226.248 37.97C226.339 38.1805 226.429 38.3905 226.518 38.6C226.635 38.8701 226.75 39.1393 226.865 39.4076C227.196 40.1783 227.526 40.9484 227.856 41.7182C228.213 42.6876 228.721 43.5942 229.362 44.4041C229.655 44.8188 230.05 45.1504 230.509 45.3664C230.968 45.5825 231.476 45.6757 231.982 45.6368C232.488 45.598 232.975 45.4285 233.396 45.1449C233.817 44.8613 234.157 44.4733 234.383 44.0188C234.861 43.1703 235.206 42.2541 235.409 41.3015C235.689 40.1417 235.728 38.9365 235.522 37.7611C235.18 35.4974 234.218 33.1854 233.519 31.0825C233.235 30.3813 233.07 29.6372 233.032 28.8814C233.034 28.7964 233.042 28.7118 233.058 28.6283C233.062 28.6069 233.066 28.5842 233.071 28.5629C233.362 28.4256 233.665 28.3147 233.975 28.2316C234.152 28.1846 234.329 28.1463 234.508 28.1164C235.123 31.4493 235.739 34.7822 236.356 38.1151C236.37 38.1933 236.386 38.2715 236.4 38.3511C236.488 38.8289 236.578 39.3066 236.677 39.783C236.767 40.2152 236.863 40.646 236.971 41.074L236.975 41.0868C237.012 41.2319 237.051 41.3755 237.091 41.5191L237.092 41.5234C237.201 41.9158 237.323 42.3054 237.461 42.6893C238.296 45.0027 239.752 47.3317 239.217 49.7333Z" fill="#F57C00"/>
<path d="M273.229 85.4012C273.202 85.8901 273.297 86.378 273.504 86.8216C274.029 87.7812 275.287 87.9993 276.376 88.089C282.738 88.6125 289.138 88.4173 295.456 87.5071C295.798 87.4836 296.131 87.3803 296.427 87.2054C297.325 86.575 296.771 85.0386 295.791 84.5468C294.81 84.0549 293.646 84.1735 292.57 83.9605C291.5 83.6911 290.482 83.2491 289.555 82.6518C287.372 81.3966 285.222 80.0879 283.103 78.7258C281.841 77.9149 280.352 77.0494 278.932 77.5302C275.083 78.8334 273.203 81.2456 273.229 85.4012Z" fill="#3F3D56"/>
<path d="M226.334 37.5008V37.5022C226.324 37.562 226.314 37.6203 226.301 37.6786C226.285 37.7753 226.267 37.8733 226.248 37.97C226.072 38.8729 225.856 39.7715 225.608 40.6645C224.926 43.1315 224.013 45.5586 223.106 47.9502C220.674 54.3629 218.242 60.7761 215.809 67.1898C215.196 68.805 214.584 70.4217 213.886 72.0043C213.653 72.5318 213.413 73.0636 213.175 73.601C212.319 75.5248 211.498 77.5112 211.226 79.5588C210.971 80.9063 210.942 82.2867 211.139 83.6438C211.412 84.9861 212.226 86.2971 213.5 86.7933C214.122 87.0365 215.013 87.3621 214.842 88.009C214.75 88.3645 214.346 88.538 213.984 88.5977C213.506 88.674 213.017 88.644 212.551 88.5098C212.086 88.3757 211.656 88.1406 211.291 87.8214C210.611 87.217 210.088 86.2772 209.183 86.1762C208.557 86.108 207.98 86.4833 207.406 86.7464C205.065 87.8171 202.338 87.0677 199.879 86.307C200.072 85.3103 201.072 84.6534 202.065 84.4543C203.058 84.2538 204.085 84.396 205.098 84.369C205.422 84.3863 205.744 84.3034 206.02 84.1316C206.267 83.9045 206.44 83.6082 206.517 83.2813C207.169 81.3462 207.654 79.3587 207.967 77.3406C208.294 75.232 208.43 73.0906 208.896 71.0075C209.258 69.3823 209.818 67.8083 210.298 66.213C211.227 62.9282 211.989 59.5986 212.582 56.237C212.882 54.8404 213.097 53.4268 213.226 52.004C213.307 50.8239 213.268 49.638 213.382 48.4621C213.573 46.9323 213.891 45.4212 214.335 43.9448C214.77 42.3338 215.204 40.7237 215.638 39.1146C216.281 36.733 216.971 34.2589 218.602 32.4076C219.168 31.7559 219.862 31.2275 220.641 30.8552C221.42 30.483 222.267 30.2748 223.129 30.2435C223.452 30.2431 223.775 30.2779 224.091 30.3473C224.143 30.3601 224.196 30.3729 224.248 30.3871C224.592 30.4772 224.923 30.614 225.23 30.7938C225.733 30.4738 225.988 30.5862 226.322 31.0796C226.615 31.6017 226.753 32.1965 226.72 32.7944C226.748 34.3721 226.619 35.9488 226.334 37.5008Z" fill="#FBBEBE"/>
<path d="M226.886 39.3862L226.865 39.4076L226.75 39.5227L225.608 40.6645L225.048 38.3113L223.129 30.2435C223.452 30.2431 223.775 30.2779 224.091 30.3473C224.104 30.2549 224.127 30.1639 224.157 30.0757L224.248 30.3871L224.899 32.6024L226.13 36.8083L226.333 37.5008V37.5022L226.886 39.3862Z" fill="#F57C00"/>
<path d="M234.133 13.6479C234.132 14.395 233.984 15.1345 233.697 15.8242C233.411 16.514 232.991 17.1404 232.463 17.6677C232.271 17.8597 232.066 18.0373 231.849 18.1993C230.868 18.939 229.674 19.3393 228.447 19.3399H221.632C220.126 19.3376 218.683 18.7371 217.619 17.6705C216.555 16.6038 215.958 15.158 215.958 13.6507C215.958 12.1433 216.555 10.6976 217.619 9.63092C218.683 8.56424 220.126 7.96381 221.632 7.96149H228.447C229.953 7.96541 231.396 8.5656 232.461 9.63101C233.527 10.6964 234.128 12.1405 234.133 13.6479V13.6479Z" fill="#2F2E41"/>
<path d="M240.522 14.0767C243.739 14.0767 246.346 11.4666 246.346 8.24694C246.346 5.02727 243.739 2.41721 240.522 2.41721C237.306 2.41721 234.698 5.02727 234.698 8.24694C234.698 11.4666 237.306 14.0767 240.522 14.0767Z" fill="#2F2E41"/>
<path opacity="0.1" d="M240.38 2.41721C240.309 2.41721 240.238 2.42004 240.167 2.4226C241.674 2.47742 243.1 3.11506 244.147 4.20134C245.193 5.28763 245.778 6.73787 245.778 8.24694C245.778 9.75601 245.193 11.2063 244.147 12.2925C243.1 13.3788 241.674 14.0165 240.167 14.0713C240.238 14.0738 240.309 14.0767 240.38 14.0767C241.925 14.0767 243.406 13.4625 244.498 12.3692C245.591 11.2759 246.204 9.79308 246.204 8.24694C246.204 6.7008 245.591 5.21798 244.498 4.1247C243.406 3.03141 241.925 2.41721 240.38 2.41721V2.41721Z" fill="black"/>
<path opacity="0.1" d="M212.682 2.41721C212.753 2.41721 212.824 2.42004 212.895 2.4226C211.388 2.47742 209.962 3.11506 208.915 4.20134C207.869 5.28763 207.284 6.73787 207.284 8.24694C207.284 9.75601 207.869 11.2063 208.915 12.2925C209.962 13.3788 211.388 14.0165 212.895 14.0713C212.824 14.0738 212.753 14.0767 212.682 14.0767C211.138 14.0753 209.658 13.4605 208.567 12.3674C207.476 11.2742 206.863 9.79219 206.863 8.24694C206.863 6.70169 207.476 5.21965 208.567 4.12651C209.658 3.03337 211.138 2.41857 212.682 2.41721Z" fill="black"/>
<path opacity="0.1" d="M231.849 18.1993C230.868 18.939 229.674 19.3393 228.447 19.3399H221.632C220.405 19.3393 219.211 18.939 218.23 18.1993H231.849Z" fill="black"/>
<path d="M275.855 60.4411C275.855 60.4411 277.323 64.6759 278.667 63.5483L277.596 58.0129L275.855 60.4411Z" fill="#FBBEBE"/>
<path d="M454.517 189.584C455.884 190.082 457.348 190.255 458.794 190.089C460.239 189.924 461.627 189.425 462.847 188.631C464.067 187.837 465.086 186.771 465.824 185.515C466.562 184.26 466.998 182.85 467.099 181.397C467.2 179.944 466.962 178.488 466.405 177.142C465.847 175.797 464.985 174.6 463.886 173.645C462.788 172.69 461.483 172.003 460.074 171.639C458.665 171.275 457.191 171.244 455.768 171.548L456.003 176.388L453.715 172.24C451.47 173.296 449.735 175.201 448.892 177.537C448.593 178.355 448.411 179.212 448.352 180.081C448.207 182.121 448.731 184.152 449.844 185.867C450.956 187.582 452.596 188.887 454.517 189.584V189.584Z" fill="#57B894"/>
<path d="M465.837 245.727C465.029 241.61 468.529 237.961 471.986 235.589C475.442 233.216 479.481 230.886 480.661 226.86C482.356 221.074 477.307 215.775 473.377 211.206C470.461 207.815 467.958 204.09 465.918 200.109C465.1 198.513 464.349 196.844 464.134 195.063C463.824 192.499 464.647 189.947 465.476 187.5C468.239 179.351 471.192 171.27 474.337 163.257" stroke="#3F3D56" stroke-miterlimit="10"/>
<path d="M454.903 188.338C456.271 188.836 457.735 189.009 459.181 188.843C460.626 188.678 462.014 188.178 463.234 187.385C464.454 186.591 465.473 185.524 466.211 184.269C466.949 183.014 467.385 181.604 467.486 180.151C467.587 178.698 467.349 177.241 466.792 175.896C466.234 174.551 465.372 173.353 464.273 172.398C463.175 171.443 461.87 170.757 460.461 170.393C459.052 170.029 457.578 169.998 456.155 170.301L456.39 175.142L454.102 170.994C451.857 172.05 450.122 173.955 449.279 176.291C448.98 177.109 448.798 177.965 448.739 178.835C448.594 180.874 449.118 182.906 450.23 184.62C451.343 186.335 452.983 187.641 454.903 188.338V188.338Z" stroke="#3F3D56" stroke-miterlimit="10"/>
<path d="M464.689 161.586C465.225 160.103 466.126 158.78 467.308 157.738C468.489 156.696 469.914 155.968 471.451 155.622L472.224 160.224L473.659 155.391C475.65 155.42 477.58 156.082 479.171 157.282C480.762 158.481 481.93 160.155 482.509 162.063C483.087 163.971 483.044 166.013 482.388 167.895C481.731 169.777 480.493 171.401 478.854 172.533C477.215 173.665 475.259 174.247 473.268 174.193C471.277 174.14 469.355 173.455 467.778 172.236C466.202 171.018 465.053 169.33 464.498 167.415C463.943 165.501 464.009 163.459 464.689 161.586H464.689Z" fill="#57B894"/>
<path d="M465.205 159.924C465.741 158.442 466.642 157.118 467.824 156.076C469.005 155.034 470.43 154.306 471.967 153.96L472.74 158.562L474.174 153.729C476.166 153.758 478.096 154.421 479.687 155.62C481.277 156.819 482.446 158.494 483.024 160.401C483.603 162.309 483.56 164.351 482.903 166.233C482.246 168.115 481.009 169.739 479.37 170.871C477.731 172.004 475.774 172.585 473.784 172.532C471.793 172.478 469.871 171.793 468.294 170.575C466.718 169.356 465.569 167.668 465.014 165.754C464.458 163.839 464.525 161.798 465.204 159.924H465.205Z" stroke="#3F3D56" stroke-miterlimit="10"/>
<path d="M471.728 211.299C473.896 212.087 476.279 212.048 478.421 211.19C480.563 210.332 482.314 208.715 483.342 206.648C484.369 204.58 484.601 202.207 483.992 199.979C483.384 197.752 481.978 195.826 480.042 194.57L478.94 198.284L478.159 193.628C478.151 193.624 478.143 193.621 478.135 193.618C476.975 193.196 475.744 193.007 474.511 193.062C473.278 193.117 472.067 193.414 470.949 193.937C469.831 194.46 468.827 195.198 467.994 196.11C467.161 197.022 466.516 198.089 466.095 199.25C465.674 200.411 465.486 201.644 465.541 202.879C465.596 204.113 465.894 205.324 466.417 206.443C466.94 207.562 467.679 208.567 468.59 209.4C469.501 210.233 470.567 210.879 471.728 211.299H471.728Z" fill="#57B894"/>
<path d="M472.175 209.616C474.343 210.404 476.726 210.365 478.868 209.507C481.01 208.649 482.761 207.032 483.789 204.965C484.816 202.897 485.048 200.523 484.44 198.296C483.831 196.068 482.425 194.143 480.489 192.886L479.387 196.601L478.606 191.944C478.598 191.941 478.59 191.938 478.582 191.935C477.422 191.513 476.191 191.324 474.958 191.379C473.725 191.434 472.514 191.731 471.396 192.254C470.278 192.777 469.274 193.515 468.441 194.427C467.608 195.339 466.963 196.406 466.542 197.567C466.121 198.728 465.933 199.961 465.988 201.196C466.043 202.43 466.341 203.641 466.864 204.76C467.387 205.879 468.126 206.884 469.037 207.717C469.948 208.55 471.014 209.196 472.175 209.616H472.175Z" stroke="#3F3D56" stroke-miterlimit="10"/>
<path d="M461.947 226.917C462.32 229.041 463.411 230.972 465.037 232.386C466.663 233.801 468.726 234.612 470.879 234.685C473.032 234.757 475.145 234.086 476.862 232.785C478.58 231.483 479.798 229.63 480.313 227.536C480.828 225.442 480.608 223.235 479.69 221.284C478.772 219.333 477.211 217.758 475.27 216.822C473.33 215.886 471.126 215.647 469.03 216.144C466.934 216.641 465.072 217.845 463.757 219.553L467.943 225.859L462.224 222.512C461.78 223.937 461.685 225.448 461.947 226.917V226.917Z" fill="#57B894"/>
<path d="M462.334 225.671C462.707 227.795 463.798 229.726 465.424 231.14C467.05 232.554 469.113 233.366 471.266 233.438C473.419 233.511 475.532 232.84 477.249 231.539C478.967 230.237 480.185 228.384 480.7 226.29C481.215 224.196 480.995 221.989 480.077 220.038C479.158 218.087 477.598 216.512 475.657 215.576C473.716 214.64 471.513 214.4 469.417 214.898C467.321 215.395 465.459 216.598 464.144 218.307L468.33 224.613L462.611 221.266C462.167 222.691 462.072 224.202 462.334 225.671V225.671Z" stroke="#3F3D56" stroke-miterlimit="10"/>
<path d="M4.06604 212.494C4.9645 212.821 5.92654 212.935 6.87633 212.826C7.82613 212.717 8.73772 212.389 9.53925 211.868C10.3408 211.346 11.0104 210.645 11.4952 209.821C11.98 208.996 12.2668 208.07 12.333 207.115C12.3993 206.16 12.2431 205.203 11.8768 204.319C11.5105 203.435 10.9441 202.649 10.2223 202.021C9.50043 201.394 8.64289 200.943 7.71721 200.704C6.79154 200.465 5.82305 200.444 4.88807 200.644L5.04258 203.824L3.53942 201.098C2.06415 201.792 0.924441 203.044 0.370751 204.579C0.174112 205.116 0.0545704 205.679 0.0156919 206.25C-0.0791885 207.59 0.264886 208.925 0.995775 210.052C1.72666 211.178 2.80453 212.036 4.06604 212.494V212.494Z" fill="#57B894"/>
<path d="M11.5039 249.381C10.9733 246.676 13.2726 244.278 15.5437 242.72C17.8149 241.161 20.4686 239.63 21.2435 236.985C22.3572 233.183 19.0399 229.702 16.4579 226.7C14.5423 224.472 12.8972 222.025 11.5571 219.409C10.9745 218.382 10.5777 217.259 10.3849 216.094C10.1814 214.409 10.7222 212.732 11.267 211.125C13.082 205.771 15.0225 200.461 17.0886 195.197" stroke="#3F3D56" stroke-miterlimit="10"/>
<path d="M4.3202 211.675C5.21865 212.002 6.18069 212.116 7.13049 212.007C8.08028 211.898 8.99187 211.57 9.7934 211.049C10.5949 210.527 11.2645 209.827 11.7493 209.002C12.2341 208.177 12.521 207.251 12.5872 206.296C12.6534 205.341 12.4972 204.385 12.1309 203.501C11.7646 202.617 11.1982 201.83 10.4764 201.203C9.75458 200.575 8.89703 200.124 7.97136 199.885C7.04569 199.646 6.0772 199.625 5.14223 199.825L5.29674 203.005L3.79357 200.28C2.3183 200.974 1.17859 202.225 0.624901 203.76C0.428265 204.298 0.308725 204.86 0.269844 205.431C0.174958 206.771 0.51903 208.106 1.24992 209.233C1.98081 210.359 3.05868 211.217 4.3202 211.675V211.675Z" stroke="#3F3D56" stroke-miterlimit="10"/>
<path d="M10.7493 194.098C11.1019 193.124 11.6937 192.255 12.4701 191.57C13.2465 190.886 14.1827 190.408 15.1922 190.18L15.7004 193.204L16.6427 190.028C17.951 190.048 19.2193 190.483 20.2644 191.271C21.3096 192.059 22.0775 193.159 22.4574 194.412C22.8372 195.665 22.8094 197.007 22.3778 198.244C21.9462 199.48 21.1332 200.547 20.0562 201.291C18.9792 202.035 17.694 202.417 16.386 202.382C15.0781 202.347 13.8151 201.897 12.7794 201.096C11.7437 200.296 10.9889 199.187 10.624 197.929C10.2591 196.671 10.303 195.33 10.7493 194.098V194.098Z" fill="#57B894"/>
<path d="M11.0882 193.007C11.4407 192.033 12.0325 191.163 12.809 190.479C13.5854 189.794 14.5215 189.316 15.5311 189.088L16.0393 192.112L16.9816 188.936C18.2899 188.956 19.5581 189.391 20.6033 190.179C21.6484 190.967 22.4164 192.067 22.7962 193.32C23.1761 194.574 23.1482 195.915 22.7166 197.152C22.285 198.388 21.4721 199.456 20.3951 200.199C19.3181 200.943 18.0329 201.325 16.7249 201.29C15.4169 201.255 14.1539 200.805 13.1182 200.004C12.0825 199.204 11.3278 198.095 10.9629 196.837C10.598 195.579 10.6419 194.238 11.0882 193.007V193.007Z" stroke="#3F3D56" stroke-miterlimit="10"/>
<path d="M15.3742 226.761C16.7991 227.279 18.3643 227.253 19.7716 226.689C21.1788 226.126 22.3297 225.064 23.0049 223.705C23.68 222.347 23.8322 220.787 23.4324 219.324C23.0326 217.86 22.1089 216.595 20.8371 215.769L20.1131 218.21L19.5997 215.151C19.5946 215.148 19.5894 215.146 19.584 215.145C18.8218 214.867 18.0126 214.743 17.2024 214.779C16.3922 214.814 15.597 215.01 14.8622 215.353C14.1275 215.697 13.4676 216.182 12.9202 216.781C12.3729 217.38 11.9488 218.081 11.6722 218.844C11.3957 219.607 11.2721 220.418 11.3085 221.229C11.3449 222.04 11.5406 222.835 11.8844 223.571C12.2282 224.306 12.7133 224.966 13.3121 225.513C13.911 226.061 14.6117 226.485 15.3742 226.761V226.761Z" fill="#57B894"/>
<path d="M15.6678 225.655C17.0927 226.173 18.6579 226.147 20.0652 225.584C21.4724 225.02 22.6233 223.958 23.2984 222.599C23.9736 221.241 24.1258 219.681 23.726 218.218C23.3262 216.754 22.4024 215.489 21.1307 214.664L20.4067 217.104L19.8933 214.045C19.8882 214.042 19.883 214.04 19.8776 214.039C19.1156 213.762 18.3066 213.638 17.4969 213.675C16.6871 213.711 15.8924 213.906 15.1582 214.25C13.6753 214.944 12.5286 216.2 11.9703 217.74C11.4121 219.28 11.488 220.98 12.1814 222.464C12.8749 223.949 14.129 225.097 15.6678 225.655V225.655Z" stroke="#3F3D56" stroke-miterlimit="10"/>
<path d="M8.9481 237.022C9.19309 238.418 9.90996 239.687 10.9785 240.616C12.047 241.545 13.4022 242.078 14.8168 242.126C16.2314 242.173 17.6193 241.733 18.7479 240.878C19.8764 240.023 20.6769 238.805 21.0152 237.429C21.3534 236.053 21.2087 234.603 20.6055 233.321C20.0022 232.04 18.9771 231.005 17.7019 230.39C16.4268 229.775 14.9792 229.618 13.6019 229.944C12.2247 230.271 11.0015 231.062 10.1376 232.184L12.8878 236.328L9.12999 234.128C8.83862 235.064 8.77624 236.057 8.9481 237.022V237.022Z" fill="#57B894"/>
<path d="M9.20225 236.204C9.44724 237.599 10.1641 238.868 11.2326 239.797C12.3012 240.726 13.6564 241.259 15.0709 241.307C16.4855 241.355 17.8735 240.914 19.002 240.059C20.1306 239.204 20.9311 237.986 21.2693 236.61C21.6075 235.235 21.4629 233.784 20.8596 232.503C20.2564 231.221 19.2312 230.186 17.9561 229.571C16.6809 228.956 15.2333 228.799 13.8561 229.125C12.4788 229.452 11.2557 230.243 10.3917 231.365L13.1419 235.509L9.38413 233.309C9.09277 234.246 9.03039 235.238 9.20225 236.204V236.204Z" stroke="#3F3D56" stroke-miterlimit="10"/>
<path d="M217.108 154.142C221.346 154.142 224.782 149.691 224.782 144.201C224.782 138.71 221.346 134.259 217.108 134.259C212.869 134.259 209.434 138.71 209.434 144.201C209.434 149.691 212.869 154.142 217.108 154.142Z" fill="#2F2E41"/>
<path d="M258.864 154.368C263.102 154.368 266.538 149.917 266.538 144.427C266.538 138.936 263.102 134.485 258.864 134.485C254.626 134.485 251.19 138.936 251.19 144.427C251.19 149.917 254.626 154.368 258.864 154.368Z" fill="#2F2E41"/>
<path d="M252.995 173.799C252.995 178.29 246.73 181.932 239.002 181.932C231.273 181.932 225.008 178.29 225.008 173.799C225.008 169.908 229.707 166.654 235.986 165.859C236.986 165.727 237.993 165.662 239.002 165.665C240.691 165.659 242.376 165.841 244.026 166.207C249.271 167.377 252.995 170.337 252.995 173.799Z" fill="#2F2E41"/>
<path d="M218.913 151.883C223.152 151.883 226.587 147.432 226.587 141.941C226.587 136.451 223.152 132 218.913 132C214.675 132 211.239 136.451 211.239 141.941C211.239 147.432 214.675 151.883 218.913 151.883Z" stroke="#3F3D56" stroke-miterlimit="10"/>
<path d="M260.669 152.108C264.908 152.108 268.344 147.658 268.344 142.167C268.344 136.677 264.908 132.226 260.669 132.226C256.431 132.226 252.995 136.677 252.995 142.167C252.995 147.658 256.431 152.108 260.669 152.108Z" stroke="#3F3D56" stroke-miterlimit="10"/>
<path d="M240.807 179.673C248.536 179.673 254.801 176.031 254.801 171.539C254.801 167.047 248.536 163.405 240.807 163.405C233.079 163.405 226.813 167.047 226.813 171.539C226.813 176.031 233.079 179.673 240.807 179.673Z" stroke="#3F3D56" stroke-miterlimit="10"/>
<path d="M244.193 166.885C244.196 167.453 243.983 168.001 243.597 168.418C243.414 168.617 243.193 168.776 242.946 168.886C242.699 168.995 242.432 169.053 242.161 169.054H237.647C237.091 169.034 236.565 168.795 236.184 168.389C235.804 167.983 235.599 167.442 235.616 166.885C235.614 166.444 235.742 166.013 235.986 165.646C236.985 165.505 237.993 165.436 239.002 165.439C240.693 165.433 242.38 165.627 244.026 166.017C244.137 166.293 244.194 166.588 244.193 166.885V166.885Z" fill="white"/>
<path d="M218.913 141.489C220.16 141.489 221.17 140.478 221.17 139.23C221.17 137.982 220.16 136.971 218.913 136.971C217.667 136.971 216.656 137.982 216.656 139.23C216.656 140.478 217.667 141.489 218.913 141.489Z" fill="white"/>
<path d="M260.895 141.489C262.142 141.489 263.152 140.478 263.152 139.23C263.152 137.982 262.142 136.971 260.895 136.971C259.649 136.971 258.638 137.982 258.638 139.23C258.638 140.478 259.649 141.489 260.895 141.489Z" fill="white"/>
<path opacity="0.3" d="M263.152 162.728C264.399 162.728 265.409 161.716 265.409 160.468C265.409 159.22 264.399 158.209 263.152 158.209C261.906 158.209 260.895 159.22 260.895 160.468C260.895 161.716 261.906 162.728 263.152 162.728Z" fill="#F57C00"/>
<path opacity="0.3" d="M208.079 162.728C209.326 162.728 210.336 161.716 210.336 160.468C210.336 159.22 209.326 158.209 208.079 158.209C206.833 158.209 205.822 159.22 205.822 160.468C205.822 161.716 206.833 162.728 208.079 162.728Z" fill="#F57C00"/>
</g>
<defs>
<clipPath id="clip0">
<rect width="485" height="264" fill="white"/>
</clipPath>
</defs>
</svg>
