<svg width="49" height="56" viewBox="0 0 49 56" fill="none" xmlns="http://www.w3.org/2000/svg">
<path d="M44.2062 26.4144C44.6543 26.4144 45.0176 26.0513 45.0176 25.6031V7.29382H46.0766C47.2398 7.29382 48.1861 6.3474 48.1861 5.1843V2.10953C48.1861 0.946425 47.2398 0 46.0766 0H26.0163C25.5682 0 25.2049 0.363144 25.2049 0.811314C25.2049 1.25948 25.5682 1.62263 26.0163 1.62263H46.0766C46.3404 1.62263 46.5634 1.84558 46.5634 2.10942V5.18419C46.5634 5.44803 46.3404 5.67098 46.0766 5.67098C43.989 5.67098 4.27953 5.67098 2.16946 5.67098C1.90562 5.67098 1.68267 5.44803 1.68267 5.18419V2.10953C1.68267 1.84569 1.90562 1.62274 2.16946 1.62274H22.2298C22.6779 1.62274 23.0411 1.25959 23.0411 0.811422C23.0411 0.363252 22.6779 0.000108175 22.2298 0.000108175H2.16957C1.00636 0 0.0599365 0.946425 0.0599365 2.10953V5.1843C0.0599365 6.34751 1.00636 7.29382 2.16946 7.29382H3.2285V48.0918H2.16946C1.00625 48.0918 0.0599365 49.0381 0.0599365 50.2013V53.2762C0.0599365 54.4394 1.00636 55.3857 2.16946 55.3857H46.0766C47.2398 55.3857 48.1861 54.4393 48.1861 53.2762V50.2013C48.1861 49.0381 47.2397 48.0918 46.0766 48.0918H45.0176V29.3894C45.0176 28.9412 44.6543 28.5781 44.2062 28.5781C43.7582 28.5781 43.3949 28.9412 43.3949 29.3894V48.0917H41.9929V7.29382H43.3949V25.603C43.3949 26.0513 43.7582 26.4144 44.2062 26.4144ZM37.2749 18.7586V7.29382H40.3701V48.0918H37.2749V36.6269C37.2749 35.8869 36.9189 35.1833 36.3225 34.745L27.5091 28.2671C27.1213 27.9821 27.1211 27.4036 27.5091 27.1183L36.3227 20.6403C36.919 20.202 37.2749 19.4986 37.2749 18.7586ZM35.6522 36.6269V48.0917H12.5939V36.6269C12.5939 36.4051 12.6993 36.1888 12.8847 36.0525L16.016 33.7511H32.2302L35.3615 36.0525C35.5436 36.1862 35.6522 36.4011 35.6522 36.6269ZM12.5939 7.29382H35.6522V18.7587C35.6522 18.9845 35.5436 19.1993 35.3615 19.3331L26.548 25.811C25.2771 26.7452 25.2769 28.6405 26.548 29.5747L30.0224 32.1283H18.2237L21.6982 29.5747C22.9693 28.6406 22.9693 26.745 21.6982 25.811L12.8848 19.3331C12.7027 19.1993 12.594 18.9845 12.594 18.7587L12.5939 7.29382ZM7.87614 48.092V7.29382H10.9714V18.7587C10.9714 19.4986 11.3274 20.2022 11.9237 20.6406L20.7373 27.1187C21.1251 27.4037 21.1252 27.9823 20.7373 28.2674L11.9236 34.7453C11.3274 35.1838 10.9712 35.8874 10.9712 36.6273V48.092H7.87614ZM4.85134 7.29382H6.2534V48.0918H4.85134V7.29382ZM46.0766 49.7145C46.3405 49.7145 46.5634 49.9374 46.5634 50.2013V53.2762C46.5634 53.54 46.3404 53.763 46.0766 53.763H2.16957C1.90573 53.763 1.68278 53.54 1.68278 53.2762V50.2013C1.68278 49.9375 1.90573 49.7145 2.16957 49.7145H4.03786C4.03862 49.7145 4.03927 49.7146 4.03992 49.7146C4.82733 49.7146 45.2328 49.7145 46.0766 49.7145Z" fill="#2C3488"/>
</svg>
