<svg width="42" height="56" viewBox="0 0 42 56" fill="none" xmlns="http://www.w3.org/2000/svg">
<path d="M29.3037 30.8923L28.819 27.2267C28.7597 26.7776 28.346 26.4616 27.8982 26.521L24.2326 27.0056C23.7835 27.0649 23.4674 27.4772 23.5268 27.9264C23.5862 28.3756 23.9999 28.691 24.4477 28.6322L26.15 28.4072L17.0582 40.269C16.628 40.0715 16.1501 39.9605 15.6467 39.9605C13.7746 39.9605 12.2515 41.4836 12.2515 43.3557C12.2515 45.2278 13.7746 46.7508 15.6467 46.7508C17.5187 46.7508 19.0418 45.2278 19.0418 43.3557C19.0418 42.5802 18.7798 41.865 18.3407 41.2928L27.4521 29.4052L27.6772 31.1074C27.7317 31.52 28.0842 31.8204 28.4894 31.8204C28.5253 31.8204 28.5615 31.8181 28.598 31.8132C29.0471 31.7539 29.3631 31.3414 29.3037 30.8923ZM15.6467 45.1099C14.6792 45.1099 13.8922 44.3229 13.8922 43.3555C13.8922 42.3879 14.6792 41.601 15.6467 41.601C16.6141 41.601 17.4011 42.3879 17.4011 43.3555C17.4011 44.3229 16.6141 45.1099 15.6467 45.1099Z" fill="#2C3488"/>
<path d="M29.0706 44.99L27.436 43.3554L29.0706 41.7208C29.3908 41.4004 29.3908 40.8811 29.0706 40.5605C28.7501 40.2403 28.2308 40.2403 27.9103 40.5605L26.2757 42.1951L24.6411 40.5605C24.3207 40.2403 23.8013 40.2403 23.4809 40.5605C23.1605 40.881 23.1605 41.4004 23.4809 41.7208L25.1155 43.3554L23.4809 44.99C23.1605 45.3105 23.1605 45.8298 23.4809 46.1502C23.8014 46.4706 24.3207 46.4705 24.6411 46.1502L26.2757 44.5156L27.9103 46.1502C28.2309 46.4706 28.7501 46.4705 29.0706 46.1502C29.3909 45.8297 29.3909 45.3103 29.0706 44.99Z" fill="#2C3488"/>
<path d="M16.807 29.5489L18.4416 27.9142C18.762 27.5938 18.762 27.0745 18.4416 26.754C18.1212 26.4337 17.6019 26.4337 17.2814 26.754L15.6468 28.3886L14.0121 26.754C13.6916 26.4337 13.1723 26.4337 12.8518 26.754C12.5315 27.0745 12.5315 27.5938 12.8518 27.9142L14.4864 29.5489L12.8518 31.1835C12.5313 31.5039 12.5313 32.0232 12.8517 32.3437C13.0119 32.5038 13.2219 32.5839 13.4318 32.5839C13.6417 32.5839 13.8517 32.5038 14.012 32.3437L15.6466 30.7091L17.2813 32.3437C17.4415 32.5038 17.6515 32.5839 17.8614 32.5839C18.0713 32.5839 18.2813 32.5038 18.4415 32.3437C18.7619 32.0232 18.7619 31.5039 18.4415 31.1835L16.807 29.5489Z" fill="#2C3488"/>
<path d="M27.5545 18.529H14.0078C13.5546 18.529 13.1875 18.8962 13.1875 19.3493C13.1875 19.8024 13.5546 20.1696 14.0078 20.1696H27.5544C28.0076 20.1696 28.3747 19.8024 28.3747 19.3493C28.3747 18.8962 28.0077 18.529 27.5545 18.529Z" fill="#2C3488"/>
<path d="M27.5545 21.7174H14.0078C13.5546 21.7174 13.1875 22.0846 13.1875 22.5377C13.1875 22.9908 13.5546 23.358 14.0078 23.358H27.5544C28.0076 23.358 28.3747 22.9908 28.3747 22.5377C28.3748 22.0846 28.0077 21.7174 27.5545 21.7174Z" fill="#2C3488"/>
<path d="M40.7357 32.1462C40.2825 32.1462 39.9153 32.5134 39.9153 32.9665V52.2091C39.9153 53.3948 38.9508 54.3593 37.7651 54.3593H3.7972C2.61158 54.3593 1.64711 53.3947 1.64711 52.2091V9.89559C1.64711 8.70986 2.61158 7.74539 3.7972 7.74539H10.7465V8.20225V8.20991C10.7465 9.38602 11.7034 10.3428 12.8794 10.3428H12.887H13.1874V11.8042H5.80959C5.04331 11.8042 4.41976 12.4276 4.41976 13.194V50.1747C4.41976 50.941 5.0432 51.5645 5.80959 51.5645H18.8802C19.3334 51.5645 19.7005 51.1973 19.7005 50.7442C19.7005 50.2911 19.3334 49.9239 18.8802 49.9239H6.0605V13.4448H13.1874V14.737C13.1874 15.735 13.9993 16.547 14.9974 16.547H26.5647C27.5629 16.547 28.3747 15.735 28.3747 14.737V13.4448H35.5016V49.9237H22.7086C22.2554 49.9237 21.8883 50.2908 21.8883 50.744C21.8883 51.1971 22.2554 51.5643 22.7086 51.5643H35.7525C36.5188 51.5643 37.1424 50.9409 37.1424 50.1745V13.1939C37.1424 12.4276 36.5189 11.8041 35.7525 11.8041H28.3747V10.3428H28.6751H28.6827C29.8589 10.3428 30.8157 9.38591 30.8157 8.20991V8.20225V7.74539H37.7648C38.9505 7.74539 39.915 8.70997 39.915 9.89559V29.1383C39.9151 29.5913 40.2823 29.9586 40.7354 29.9586C41.1886 29.9586 41.5557 29.5914 41.5557 29.1383V9.89559C41.5557 7.80533 39.8551 6.10466 37.7648 6.10466H30.8157V5.60744C30.8157 4.43133 29.8587 3.47452 28.6827 3.47452H24.2152V2.14058C24.2153 0.960312 23.255 0 22.0747 0H19.4877C18.3073 0 17.3471 0.960312 17.3471 2.14058V3.4743H12.8796C11.7035 3.4743 10.7467 4.43111 10.7467 5.60722V6.10444H3.79742C1.70715 6.10444 0.0065918 7.80511 0.0065918 9.89538V52.2088C0.0065918 54.2991 1.70715 55.9998 3.79742 55.9998H37.765C39.8553 55.9998 41.556 54.2991 41.556 52.2088V32.9665C41.556 32.5134 41.1888 32.1462 40.7357 32.1462ZM26.734 14.7369C26.734 14.8303 26.6581 14.9062 26.5647 14.9062H14.9974C14.904 14.9062 14.8281 14.8303 14.8281 14.7369V13.4447H26.7341V14.7369H26.734ZM26.7342 11.8042H26.734H14.8282V10.3428H26.7342V11.8042ZM18.9875 2.14058C18.9876 1.86955 19.2166 1.64073 19.4875 1.64073H22.0745C22.3456 1.64073 22.5744 1.86966 22.5744 2.14058V3.4743H18.9875V2.14058ZM12.3871 5.60733C12.3871 5.34056 12.6125 5.11514 12.8793 5.11514C13.5786 5.11514 27.9901 5.11514 28.6827 5.11514C28.9495 5.11514 29.1749 5.34056 29.1749 5.60733C29.1749 6.5765 29.1749 7.27934 29.1749 8.20214C29.1749 8.47317 28.946 8.70198 28.6751 8.70198C28.3336 8.70198 13.3873 8.70198 12.8869 8.70198C12.6159 8.70198 12.3871 8.47306 12.3871 8.20214C12.3871 7.27869 12.3871 6.57716 12.3871 5.60733Z" fill="#2C3488"/>
</svg>
