<svg width="52" height="49" viewBox="0 0 52 49" fill="none" xmlns="http://www.w3.org/2000/svg">
<path d="M51.1385 41.1436C50.7186 41.1436 50.3783 41.484 50.3783 41.9039V46.9835C50.3783 47.0541 50.3209 47.1116 50.2502 47.1116H47.3616V36.0043C47.3616 35.5845 47.0213 35.2441 46.6013 35.2441C46.1814 35.2441 45.8411 35.5845 45.8411 36.0043V47.1117H40.2589L41.7698 45.4496C42.0031 45.1928 42.1131 44.8282 42.0641 44.4741C42.063 44.4665 42.0619 44.459 42.0606 44.4514L40.3622 34.4168L40.6747 33.9463L40.7561 34.0041C41.0348 34.2021 41.3902 34.2742 41.734 34.1884C42.0717 34.104 42.3546 33.8768 42.5101 33.5654V33.5653L44.2382 30.1016L48.1859 31.6305C48.3417 31.6982 50.3779 32.6318 50.3779 35.0611V38.3559C50.378 38.7758 50.7182 39.1162 51.1382 39.1162C51.5582 39.1162 51.8984 38.7758 51.8984 38.356V35.0612C51.8984 31.553 48.8894 30.2757 48.7614 30.223C48.7565 30.221 48.7518 30.2191 48.7469 30.2172L42.0247 27.6138V26.2291C43.074 25.385 43.811 24.1683 44.0322 22.7813C44.5556 22.7156 45.0411 22.5061 45.444 22.1596C46.0218 21.6627 46.3534 20.9396 46.3534 20.1761C46.3534 19.5666 46.1418 18.9833 45.763 18.5201V16.4687C45.763 12.454 42.4969 9.18794 38.4824 9.18794C36.6801 9.18794 35.0299 9.84762 33.757 10.9365C33.7406 10.3539 33.5321 9.79887 33.1687 9.35448V7.30317C33.1687 3.28853 29.9025 0.0224609 25.8881 0.0224609C21.8735 0.0224609 18.6074 3.28863 18.6074 7.30317V9.408C18.242 9.84468 18.0375 10.3712 18.0195 10.93C17.2073 10.2359 16.2354 9.71342 15.1521 9.42818C14.7454 9.32113 14.3301 9.5637 14.2232 9.96977C14.1162 10.3758 14.3587 10.7917 14.7648 10.8987C17.2901 11.5636 19.0538 13.8542 19.0538 16.4686V17.6056C19.021 17.5988 18.9155 17.5806 18.9115 17.58C18.9011 17.3654 18.8468 17.2344 18.7298 17.0661C18.5352 16.7864 18.1857 16.438 17.0616 15.2298C16.661 14.7995 16.0131 14.7205 15.5212 15.042C13.5958 16.2998 11.2566 16.9408 9.08581 16.8134C8.37869 16.7719 7.93704 17.0826 7.74881 17.5918C7.73198 17.5945 7.54395 17.6324 7.53351 17.635V16.4686C7.53351 13.9477 9.21799 11.6799 11.6298 10.9534C12.0318 10.8324 12.2595 10.4083 12.1385 10.0062C12.0174 9.60404 11.5927 9.37628 11.1911 9.49751C9.72441 9.93926 8.40596 10.859 7.47898 12.0872C6.51977 13.3577 6.01284 14.8728 6.01284 16.4687V18.5736C5.62989 19.0311 5.4228 19.5872 5.4228 20.1761C5.4228 21.4776 6.38171 22.6127 7.7479 22.7819C7.97171 24.1365 8.7066 25.4355 9.86642 26.3186V27.6142L3.15173 30.2174C3.14696 30.2193 3.1422 30.2212 3.13743 30.2231C3.00911 30.2757 0 31.5529 0 35.0611V46.9835C0 47.8927 0.739556 48.6321 1.64869 48.6321H25.061C25.3882 48.6321 25.6926 48.5351 25.9494 48.3701C26.2061 48.5351 26.5106 48.6321 26.8379 48.6321H50.2502C51.1593 48.6321 51.8988 47.8927 51.8988 46.9835V41.9039C51.8987 41.484 51.5585 41.1436 51.1385 41.1436ZM7.6735 21.2111C7.2278 21.0493 6.94306 20.6371 6.94306 20.1759C6.94306 19.7285 7.26743 19.361 7.6735 19.1865V21.2111ZM42.8142 29.55L41.322 32.5409C41.3218 32.5407 39.6643 31.3636 39.6408 31.3468C40.3559 30.4642 40.0199 30.8788 41.5067 29.0437L42.8142 29.55ZM38.5418 30.2878L36.5757 27.8608V27.1315C37.2148 27.3525 37.9032 27.4544 38.5513 27.4546C38.5514 27.4546 38.5516 27.4546 38.5517 27.4546H38.5518C39.2218 27.4545 39.9001 27.3273 40.5042 27.1V27.8655L38.5418 30.2878ZM39.4344 33.0655L39.1548 33.4864H37.9292L37.6495 33.0655L38.542 32.4316L39.4344 33.0655ZM25.9474 21.1222L23.9812 18.6952V17.9659C24.6178 18.186 25.3056 18.2889 25.9568 18.2891C25.9569 18.2891 25.9571 18.2891 25.9572 18.2891H25.9573C26.6261 18.2891 27.3044 18.1623 27.9098 17.9345V18.6999L25.9474 21.1222ZM26.8399 23.9001L26.5602 24.3211H25.3346L25.055 23.9001L25.9475 23.2663L26.8399 23.9001ZM19.9605 13.5435C20.0848 13.5773 20.2125 13.6003 20.3421 13.6164C20.5659 14.9709 21.3008 16.2699 22.4607 17.1531V18.4486L20.9097 19.0498C20.8198 18.861 20.7074 18.6831 20.574 18.52V16.4687C20.574 15.437 20.3566 14.4452 19.9605 13.5435ZM29.9873 12.7384C29.9873 14.9637 28.172 16.7683 25.9573 16.7683C23.4586 16.7683 21.7887 14.8317 21.7887 12.7384V9.1773C24.1893 9.27339 26.6832 8.56192 28.7221 7.29283C29.4077 8.02793 29.8156 8.45498 29.9874 8.65324C29.9873 10.546 29.9873 11.2769 29.9873 12.7384ZM31.4379 13.6158C31.5668 13.5996 31.6939 13.5765 31.8175 13.5428C31.4226 14.4388 31.2016 15.4281 31.2016 16.4687V18.5735C31.0847 18.7131 30.9842 18.8618 30.901 19.0178L29.4304 18.4483V17.0637C30.4796 16.2194 31.2166 15.0027 31.4379 13.6158ZM22.9798 19.8794L24.8462 22.183L23.5734 23.0869C23.5727 23.0875 23.5722 23.088 23.5715 23.0885L23.1676 23.3754L21.6752 20.3847L22.9798 19.8794ZM27.6971 21.3779L28.9122 19.8781L30.2197 20.3845L28.7275 23.3754L28.3227 23.088C28.3223 23.0877 28.3219 23.0872 28.3215 23.0869L27.0464 22.1813L27.6971 21.3779ZM28.0803 24.7808L28.1617 24.8386C28.4459 25.0405 28.8026 25.1072 29.1396 25.0229C29.4772 24.9385 29.7601 24.7113 29.9156 24.3999V24.3998L31.1987 21.8283C31.6395 22.3716 32.2771 22.7021 32.9337 22.7841C33.1657 24.2376 33.9513 25.4781 35.0552 26.3186V27.6141L28.5918 30.1199L27.7677 25.2514L28.0803 24.7808ZM35.5743 29.0448L37.4406 31.3485C36.6246 31.9282 35.8043 32.5109 35.762 32.5409L34.2696 29.5501L35.5743 29.0448ZM42.5816 21.904C42.5818 24.0749 40.8188 25.9339 38.5518 25.9339C35.9678 25.9339 34.3831 23.91 34.3831 21.904V18.3429C36.7666 18.4381 39.2637 17.736 41.3165 16.4584C42.002 17.1935 42.4099 17.6206 42.5817 17.8188C42.5816 19.7115 42.5816 20.4424 42.5816 21.904ZM44.8329 20.176C44.8329 20.638 44.5473 21.0494 44.1025 21.2111V19.143C44.5623 19.3104 44.8329 19.7306 44.8329 20.176ZM32.7222 16.4686C32.7222 13.2924 35.3063 10.7084 38.4823 10.7084C41.6585 10.7084 44.2424 13.2925 44.2424 16.4686V17.6056C44.2078 17.5984 44.1127 17.5819 44.1001 17.58C44.0897 17.3652 44.0351 17.2339 43.9184 17.0661C43.7186 16.7791 43.373 16.4367 42.2502 15.2298C41.8581 14.8089 41.2116 14.7141 40.7098 15.042C38.8366 16.2657 36.4699 16.9569 34.2179 16.8107C33.5853 16.7692 33.127 17.079 32.9374 17.5919C32.9205 17.5946 32.7327 17.6325 32.7221 17.6351V16.4686H32.7222ZM32.8626 19.1866V21.2101C32.4156 21.0489 32.1321 20.6355 32.1321 20.1759C32.132 19.7285 32.4562 19.3612 32.8626 19.1866ZM32.2383 11.0105C32.2383 11.3306 32.0997 11.6334 31.8582 11.8411C31.7545 11.9303 31.6363 11.9988 31.5078 12.0455V9.97737C31.9625 10.1424 32.2383 10.5603 32.2383 11.0105ZM25.8878 1.54293C29.0639 1.54293 31.6479 4.12691 31.6479 7.30307V8.44007C31.6136 8.43298 31.5183 8.41646 31.5056 8.41453C31.4944 8.1817 31.4273 8.03857 31.2903 7.85338C31.0868 7.57787 30.7115 7.19907 29.6557 6.06419C29.257 5.63613 28.6095 5.55352 28.1154 5.87646C26.1371 7.16886 23.7373 7.79783 21.5622 7.64203C21.03 7.60179 20.529 7.92332 20.343 8.42619C20.3261 8.42892 20.1383 8.46683 20.1276 8.46937L20.1278 7.30317H20.1276C20.1276 4.12691 22.7117 1.54293 25.8878 1.54293ZM20.2679 10.0211V12.0456C19.8222 11.8838 19.5375 11.4716 19.5375 11.0104C19.5375 10.5656 19.8593 10.1967 20.2679 10.0211ZM18.9133 19.143C19.3386 19.2977 19.6118 19.6688 19.6389 20.1099C19.6729 20.6003 19.3716 21.0437 18.9133 21.2102V19.143ZM18.8429 22.7839C19.5599 22.6942 20.2181 22.3163 20.6497 21.7349L21.9794 24.3998C21.9794 24.3998 21.9794 24.3998 21.9795 24.3999C22.1349 24.7114 22.4178 24.9385 22.7554 25.0229C23.0892 25.1063 23.4463 25.0425 23.7333 24.8386L23.8147 24.7808L24.1272 25.2513L23.3034 30.1185L16.8359 27.6137V26.2297H16.8358C17.9126 25.3615 18.6267 24.1348 18.8429 22.7839ZM13.3527 30.2878L11.3866 27.8608V27.1315C12.0231 27.3516 12.711 27.4544 13.3623 27.4545C13.3624 27.4545 13.3626 27.4545 13.3627 27.4545C14.0424 27.4545 14.7195 27.324 15.3152 27.1V27.8655L13.3527 30.2878ZM14.2454 33.0655L13.9657 33.4864H12.7401L12.4604 33.0655L13.353 32.4316L14.2454 33.0655ZM16.3176 29.0437L17.6252 29.5501L16.1329 32.5409L15.728 32.2534C15.7276 32.2531 15.7272 32.2527 15.7268 32.2524L14.4517 31.3468L16.3176 29.0437ZM9.19407 21.904V18.3429C11.6075 18.4393 14.1029 17.7184 16.1274 16.4584C16.8064 17.1866 17.2206 17.6204 17.3926 17.8188C17.3926 19.7116 17.3926 20.4425 17.3926 21.904C17.3926 24.1151 15.5899 25.9339 13.3627 25.9339C10.883 25.9339 9.19407 24.0194 9.19407 21.904ZM10.3853 29.0448L12.2516 31.3485L10.9789 32.2524C10.9782 32.2529 10.9777 32.2534 10.977 32.2539L10.573 32.5409L9.08064 29.5501L10.3853 29.0448ZM6.05785 47.1118V36.0043C6.05785 35.5845 5.71757 35.2441 5.29761 35.2441C4.87766 35.2441 4.53738 35.5845 4.53738 36.0043V47.1117H1.64869C1.57794 47.1117 1.52057 47.0542 1.52057 46.9836V35.0611C1.52057 32.6194 3.57796 31.6886 3.71116 31.6311L7.65637 30.1016L9.38473 33.5653C9.38473 33.5653 9.38473 33.5653 9.38483 33.5654C9.54023 33.8769 9.82313 34.104 10.1609 34.1884C10.4947 34.2718 10.8518 34.208 11.1387 34.0041L11.2201 33.9463L11.5326 34.4168L9.83428 44.4514C9.83297 44.4589 9.83185 44.4665 9.83074 44.4741C9.78188 44.828 9.89186 45.1926 10.1253 45.4498L11.6359 47.1118L6.05785 47.1117V47.1118ZM11.3602 44.5475L12.9749 35.007H13.7309L15.3457 44.5475L13.353 46.7397L11.3602 44.5475ZM25.189 46.9835C25.189 47.0542 25.1316 47.1117 25.061 47.1117H22.1725V36.0043C22.1725 35.5845 21.8322 35.2441 21.4122 35.2441C20.9923 35.2441 20.652 35.5845 20.652 36.0043V47.1117H15.0699L16.5807 45.4496C16.814 45.1928 16.924 44.8282 16.8751 44.4741C16.8739 44.4665 16.8728 44.459 16.8715 44.4514L15.1732 34.4168L15.4857 33.9463L15.5671 34.0041C15.7705 34.1487 16.0113 34.2241 16.2557 34.2241C16.7016 34.2241 17.1169 33.9742 17.3211 33.5654V33.5653L19.0492 30.1017L22.9969 31.6306C24.1476 32.1311 25.1889 33.422 25.1889 35.0611V46.9835H25.189ZM25.9493 32.2985C25.6344 31.7911 25.2151 31.3216 24.7097 30.9209L25.5694 25.8416H26.3255L27.1856 30.9235C26.6667 31.3356 26.2529 31.8094 25.9493 32.2985ZM31.2468 47.1118V36.0043C31.2468 35.5845 30.9066 35.2441 30.4866 35.2441C30.0666 35.2441 29.7264 35.5845 29.7264 36.0043V47.1117H26.8378C26.7671 47.1117 26.7097 47.0542 26.7097 46.9836V35.0611C26.7097 34.1574 26.9931 33.325 27.5968 32.6257C27.9993 32.1639 28.5332 31.7901 28.9003 31.6311L32.8456 30.1015L34.5739 33.5653C34.5739 33.5653 34.5739 33.5653 34.574 33.5654C34.7294 33.8769 35.0123 34.104 35.35 34.1884C35.6838 34.2718 36.0409 34.208 36.3278 34.0041L36.4092 33.9463L36.7217 34.4168L35.0234 44.4514C35.0221 44.4589 35.0209 44.4665 35.0198 44.4741C34.971 44.828 35.0809 45.1926 35.3144 45.4498L36.825 47.1118L31.2468 47.1117V47.1118ZM36.5492 44.5476L38.1639 35.0071H38.92L40.5348 44.5476L38.5419 46.7398L36.5492 44.5476Z" fill="#2C3488"/>
</svg>
