<svg width="52" height="49" viewBox="0 0 52 49" fill="none" xmlns="http://www.w3.org/2000/svg">
<path d="M44.8728 4.42911H13.3175C12.8968 4.42911 12.5558 4.77015 12.5558 5.19083C12.5558 5.6115 12.8968 5.95255 13.3175 5.95255H44.8728C45.2935 5.95255 45.6346 5.6115 45.6346 5.19083C45.6346 4.77015 45.2935 4.42911 44.8728 4.42911Z" fill="#2C3488"/>
<path d="M41.8071 33.161H40.1492C40.0575 32.8888 39.9476 32.6235 39.8201 32.3663L40.9923 31.1941C41.386 30.8005 41.3862 30.163 40.9923 29.7695L39.5082 28.2853C39.2009 27.9781 38.743 27.9126 38.3699 28.0864V25.4246C38.3699 24.7723 37.8391 24.2414 37.1868 24.2414H33.9426C33.7357 23.5424 33.4568 22.8689 33.1093 22.2289L35.4029 19.9354C35.6264 19.7119 35.7495 19.4148 35.7495 19.0986C35.7495 18.7824 35.6264 18.4854 35.403 18.262L32.8566 15.7155C32.3952 15.2543 31.6446 15.2545 31.1834 15.7156L28.8897 18.0093C28.2497 17.6619 27.5763 17.3831 26.8773 17.176V13.9318C26.8773 13.2795 26.3465 12.7486 25.6942 12.7486H22.0931C21.4408 12.7486 20.9099 13.2794 20.9099 13.9318V17.1759C20.2107 17.3829 19.5373 17.6617 18.8974 18.0092L16.6037 15.7154C16.1424 15.2543 15.3919 15.2544 14.9306 15.7155L12.3843 18.2619C12.1609 18.4854 12.0378 18.7824 12.0378 19.0985C12.0378 19.4144 12.1609 19.7116 12.3843 19.9352L14.678 22.2288C14.3306 22.8687 14.0517 23.5422 13.8447 24.2412H10.6005C9.94815 24.2412 9.41738 24.772 9.41738 25.4244V29.0254C9.41738 29.6777 9.94815 30.2085 10.6005 30.2085H13.8447C14.0516 30.9077 14.3304 31.581 14.678 32.221L12.3842 34.5148C11.923 34.9761 11.923 35.7267 12.3843 36.1879L14.9308 38.7344C15.3921 39.1956 16.1427 39.1956 16.6039 38.7343L18.8976 36.4405C19.5375 36.788 20.211 37.0668 20.9101 37.2738V40.5179C20.9101 41.1703 21.4409 41.7011 22.0933 41.7011H25.6944C26.3467 41.7011 26.8775 41.1704 26.8775 40.5179V40.2508C26.9251 40.4059 27.01 40.548 27.128 40.6659L28.6119 42.1498C29.0055 42.5436 29.6427 42.5436 30.0364 42.1498L31.2087 40.9776C31.4659 41.105 31.7313 41.2149 32.0036 41.3067V42.9646C32.0036 43.52 32.4554 43.972 33.011 43.972H35.1095C35.665 43.972 36.1168 43.5201 36.1168 42.9646V41.3067C36.389 41.2149 36.6544 41.105 36.9117 40.9776L38.0839 42.1498C38.4776 42.5436 39.1149 42.5436 39.5085 42.1498L40.9925 40.6659C41.3862 40.2722 41.3862 39.6349 40.9925 39.2413L39.8201 38.0689C39.9476 37.8117 40.0575 37.5464 40.1492 37.2741H41.8071C42.3625 37.2741 42.8145 36.8223 42.8145 36.2668V34.1682C42.8144 33.6129 42.3625 33.161 41.8071 33.161ZM26.3132 33.161C25.7578 33.161 25.3059 33.6129 25.3059 34.1684C25.3059 36.4085 25.288 36.3827 25.36 36.5927C25.3506 36.6667 25.354 36.463 25.354 40.1778H22.4336V36.688C22.4336 36.3342 22.19 36.0269 21.8454 35.9463C20.898 35.7247 19.9997 35.3526 19.1752 34.8405C18.8748 34.6538 18.4851 34.6987 18.2346 34.9489L15.7673 37.4164L13.7023 35.3514L16.1697 32.8841C16.4199 32.6338 16.4648 32.2442 16.2781 31.9435C15.7661 31.1188 15.394 30.2206 15.1724 29.2733C15.0919 28.9287 14.7846 28.6851 14.4307 28.6851H10.9409V25.7647H14.4307C14.7846 25.7647 15.0918 25.5211 15.1724 25.1765C15.394 24.2292 15.766 23.331 16.278 22.5064C16.4647 22.2058 16.4198 21.8162 16.1696 21.5658L13.7022 19.0985L15.7672 17.0335L18.2345 19.5009C18.4848 19.7511 18.8744 19.796 19.1751 19.6093C19.9995 19.0974 20.8979 18.7252 21.8453 18.5036C22.1899 18.4231 22.4335 18.1158 22.4335 17.7619V14.2721H25.3539V17.7619C25.3539 18.1158 25.5975 18.423 25.9421 18.5036C26.8894 18.7252 27.7877 19.0973 28.6123 19.6093C28.9129 19.7959 29.3025 19.7512 29.5529 19.5009L32.0203 17.0335L34.0852 19.0985L31.6178 21.5658C31.3676 21.8161 31.3227 22.2057 31.5094 22.5063C32.0214 23.3311 32.3936 24.2293 32.6151 25.1765C32.6956 25.5211 33.0029 25.7647 33.3568 25.7647H36.8466V28.6851H36.1168V27.4705C36.1168 26.915 35.665 26.4631 35.1095 26.4631H33.011C32.4555 26.4631 32.0036 26.9149 32.0036 27.4705V29.1284C31.7313 29.2201 31.466 29.33 31.2087 29.4575L30.0363 28.2851C29.7642 28.0132 29.3531 27.9216 28.9927 28.0464C29.0357 27.7789 29.058 27.5044 29.058 27.2249C29.058 24.3773 26.7414 22.0607 23.8938 22.0607C21.0462 22.0607 18.7295 24.3773 18.7295 27.2249C18.7295 30.0725 21.0462 32.3892 23.8938 32.3892C25.1309 32.3892 26.2677 31.952 27.158 31.2238L28.3002 32.366C28.1701 32.6285 28.0586 32.9013 27.9711 33.1608H26.3132V33.161ZM27.5345 27.2249C27.5345 29.2324 25.9013 30.8656 23.8938 30.8656C21.8863 30.8656 20.2531 29.2324 20.2531 27.2249C20.2531 25.2174 21.8863 23.5842 23.8938 23.5842C25.9013 23.5842 27.5345 25.2174 27.5345 27.2249ZM27.128 39.2412C27.01 39.3591 26.9251 39.5011 26.8775 39.6561V37.2741H27.9711C28.0628 37.5463 28.1727 37.8117 28.3002 38.0689L27.128 39.2412ZM41.2911 35.7506H39.5751C39.2213 35.7506 38.9141 35.9942 38.8334 36.3388C38.7123 36.857 38.5087 37.3485 38.2285 37.7997C38.0419 38.1003 38.0867 38.4899 38.337 38.7403L39.5504 39.9536L38.7965 40.7075L37.5832 39.4943C37.3331 39.244 36.9434 39.1991 36.6426 39.3858C36.1916 39.6659 35.7 39.8694 35.1818 39.9907C34.8373 40.0712 34.5935 40.3786 34.5935 40.7324V42.4484H33.5272V40.7324C33.5272 40.3786 33.2836 40.0713 32.939 39.9907C32.4207 39.8694 31.9291 39.6659 31.4781 39.3858C31.1776 39.1991 30.7879 39.2439 30.5375 39.4943L29.3242 40.7075L28.5703 39.9536L29.7836 38.7403C30.0339 38.49 30.0787 38.1004 29.8921 37.7997C29.612 37.3487 29.4084 36.857 29.2872 36.3388C29.2066 35.9943 28.8993 35.7506 28.5455 35.7506H26.8296V34.6843H28.5456C28.8551 34.6843 29.1291 34.4977 29.2467 34.2202C29.3123 34.0658 29.3963 33.4334 29.8921 32.6351C30.0787 32.3345 30.0339 31.9449 29.7836 31.6946L28.5703 30.4813L29.3242 29.7273L30.5375 30.9406C30.7878 31.1908 31.1774 31.2358 31.4781 31.049C31.929 30.769 32.4206 30.5655 32.939 30.4442C33.2835 30.3637 33.5272 30.0564 33.5272 29.7025V27.9865H34.5935C34.5935 28.6368 34.5935 29.0468 34.5935 29.7025C34.5935 30.0564 34.8372 30.3636 35.1818 30.4442C35.7 30.5655 36.1916 30.7689 36.6426 31.049C36.9434 31.2358 37.333 31.1908 37.5832 30.9406L38.7964 29.7275L39.5503 30.4814L38.337 31.6947C38.0867 31.9449 38.0419 32.3345 38.2285 32.6352C38.5086 33.0863 38.7122 33.5778 38.8334 34.096C38.914 34.4406 39.2213 34.6843 39.5751 34.6843H41.2911V35.7506Z" fill="#2C3488"/>
<path d="M34.0602 31.8901C32.2255 31.8901 30.7327 33.3828 30.7327 35.2176C30.7327 37.0523 32.2255 38.5451 34.0602 38.5451C35.8949 38.5451 37.3876 37.0524 37.3876 35.2176C37.3876 33.3827 35.8949 31.8901 34.0602 31.8901ZM34.0602 37.0215C33.0655 37.0215 32.2562 36.2124 32.2562 35.2176C32.2562 34.2228 33.0655 33.4136 34.0602 33.4136C35.0549 33.4136 35.8641 34.2229 35.8641 35.2176C35.8641 36.2123 35.0549 37.0215 34.0602 37.0215Z" fill="#2C3488"/>
<path d="M51.2383 28.2406C50.8176 28.2406 50.4766 28.5817 50.4766 29.0023V46.7027C50.4766 46.9504 50.2672 47.1597 50.0195 47.1597H27.7774C27.3568 47.1597 27.0157 47.5007 27.0157 47.9214C27.0157 48.3421 27.3568 48.6831 27.7774 48.6831H50.0193C51.1114 48.6831 51.9999 47.7947 51.9999 46.7026V29.0022C52 28.5817 51.659 28.2406 51.2383 28.2406Z" fill="#2C3488"/>
<path d="M50.0194 0.0668945H49.9802H9.13331H2.01977H1.98057C0.88857 0.0668945 0 0.955465 0 2.04746V2.08667V46.7027C0 47.7948 0.88857 48.6832 1.98057 48.6832H24.2225C24.6431 48.6832 24.9842 48.3422 24.9842 47.9215C24.9842 47.5008 24.6431 47.1598 24.2225 47.1598H1.98057C1.73286 47.1598 1.52354 46.9505 1.52354 46.7028V10.3148H50.4765V25.4475C50.4765 25.8681 50.8175 26.2092 51.2382 26.2092C51.6589 26.2092 51.9999 25.8681 51.9999 25.4475V2.08667V2.04746C52 0.955465 51.1114 0.0668945 50.0194 0.0668945ZM8.37159 8.79121H1.52354V2.08667C1.52354 1.81773 1.75084 1.59043 2.01977 1.59043H8.37159V8.79121ZM50.4765 8.79121H9.89513V1.59043H49.9802C50.2492 1.59043 50.4765 1.81773 50.4765 2.08667V8.79121Z" fill="#2C3488"/>
</svg>
