<svg width="52" height="52" viewBox="0 0 52 52" fill="none" xmlns="http://www.w3.org/2000/svg">
<path d="M47.1758 42.4494C46.1606 42.4494 45.2201 42.7725 44.4493 43.3196L39.5779 38.4482C46.1082 31.3863 46.0897 20.4893 39.6037 13.4407L44.459 8.58546C45.2279 9.12837 46.1648 9.44868 47.1758 9.44868C48.9733 9.44868 50.5913 8.44943 51.3984 6.84068C51.5867 6.46542 51.4351 6.00857 51.0598 5.82024C50.685 5.63201 50.2277 5.78355 50.0394 6.1588C49.4919 7.25019 48.3946 7.92801 47.1758 7.92801C45.41 7.92801 43.9734 6.49148 43.9734 4.72571C43.9734 2.96004 45.41 1.5235 47.1758 1.5235C48.3946 1.5235 49.4918 2.20142 50.0394 3.29261C50.2275 3.66787 50.6845 3.81941 51.0598 3.63117C51.4352 3.44294 51.5867 2.98609 51.3984 2.61073C50.5912 1.00238 48.9733 0.00303105 47.1758 0.00303105C44.5716 0.00303105 42.4529 2.12155 42.4529 4.72581C42.4529 5.77138 42.795 6.7382 43.3724 7.52154L38.5297 12.3642C35.2618 9.35269 30.8498 7.46812 26.0119 7.46812C21.3175 7.46812 16.8633 9.25934 13.4941 12.3642L8.57828 7.44846C9.12372 6.67839 9.44575 5.73925 9.44575 4.72581C9.44575 2.12165 7.32713 0.00292969 4.72288 0.00292969C2.11862 0.00303105 0 2.12175 0 4.72591C0 7.33006 2.11862 9.44868 4.72288 9.44868C5.76582 9.44868 6.7304 9.1082 7.51273 8.53346L12.42 13.4407C9.37085 16.7543 7.55014 21.1796 7.55014 25.9297C7.55014 25.9297 7.55014 25.9297 7.55014 25.9298C7.55014 30.702 9.38686 35.1402 12.4458 38.4482L7.52236 43.3716C6.73841 42.7926 5.77007 42.4495 4.72278 42.4495C2.11862 42.4495 0 44.5681 0 47.1723C0 48.9698 0.999252 50.5879 2.60801 51.3949C2.98316 51.5834 3.44021 51.4317 3.62844 51.0564C3.81678 50.6811 3.66514 50.2243 3.28989 50.0359C2.1986 49.4884 1.52067 48.3911 1.52067 47.1723C1.52067 45.4066 2.95721 43.9701 4.72298 43.9701C6.48875 43.9701 7.92529 45.4066 7.92529 47.1723C7.92529 48.3911 7.24736 49.4884 6.15607 50.0359C5.78082 50.2242 5.62918 50.681 5.81751 51.0564C6.00575 51.4316 6.4627 51.5834 6.83795 51.3949C8.4466 50.588 9.44596 48.9699 9.44596 47.1723C9.44596 46.1631 9.12676 45.2277 8.58537 44.4594L13.5227 39.522C16.915 42.6325 21.3533 44.3917 26.0118 44.3917H26.0119C26.0119 44.3917 26.0119 44.3917 26.012 44.3917H26.0121C30.7444 44.3917 35.1593 42.5864 38.5013 39.522L43.3656 44.3864C42.7926 45.168 42.4531 46.1311 42.4531 47.1724C42.4531 49.7766 44.5717 51.8953 47.176 51.8953C49.7802 51.8953 51.8988 49.7767 51.8988 47.1724C51.8987 44.5682 49.7799 42.4494 47.1758 42.4494ZM4.72288 7.92811C2.95711 7.92811 1.52057 6.49158 1.52057 4.72591C1.52057 2.96014 2.95711 1.5236 4.72288 1.5236C6.48865 1.5236 7.92519 2.96014 7.92519 4.72591C7.92519 6.49158 6.48865 7.92811 4.72288 7.92811ZM21.3988 9.63246C19.3212 11.7448 18.0077 14.9448 17.2787 17.8307C15.6586 17.2423 14.0961 16.4885 12.6136 15.575C14.8466 12.691 17.9149 10.6211 21.3988 9.63246ZM18.3991 19.7963C20.6134 20.4433 22.9133 20.8063 25.2514 20.871V25.1696H17.8462C17.8865 23.3054 18.0744 21.4966 18.3991 19.7963ZM11.7357 16.8186C13.3863 17.8438 15.1311 18.6823 16.9429 19.3256C16.5777 21.1747 16.3676 23.1435 16.3256 25.1696H9.08844C9.22052 22.1973 10.1284 19.3283 11.7357 16.8186ZM11.811 35.1572C10.2086 32.6997 9.2266 29.8029 9.08844 26.6901H16.3255C16.3277 26.797 16.3304 26.9039 16.3336 27.0105C16.3919 28.9791 16.6093 30.8901 16.9735 32.6859C15.1782 33.3209 13.4484 34.1476 11.811 35.1572ZM12.6986 36.3953C14.1672 35.4982 15.714 34.7575 17.3169 34.1782C18.0457 36.9972 19.348 40.1414 21.3974 42.2259C17.9325 41.2412 14.9102 39.2025 12.6986 36.3953ZM25.2514 42.7954C21.7626 42.095 19.6469 37.1734 18.7632 33.704C20.8593 33.0857 23.0374 32.7373 25.2514 32.6722V42.7954ZM25.2515 31.1513C22.9245 31.2158 20.6345 31.5758 18.4291 32.2176C18.0861 30.4727 17.8878 28.6107 17.8463 26.6902H25.2515V31.1513ZM25.2515 19.3502C23.0237 19.2848 20.8329 18.9328 18.7255 18.3074C19.5923 14.8179 21.7338 9.77062 25.2515 9.06431V19.3502ZM40.2126 35.1572C38.5751 34.1475 36.8453 33.3209 35.0499 32.686C35.4339 30.7929 35.6548 28.7718 35.6981 26.6901H42.9351C42.797 29.8029 41.815 32.6997 40.2126 35.1572ZM40.2879 16.8186C41.893 19.3245 42.803 22.1933 42.9352 25.1695H35.6982C35.656 23.1435 35.4461 21.1747 35.0808 19.3257C36.8925 18.6824 38.6373 17.8438 40.2879 16.8186ZM39.4102 15.5749C37.9279 16.4883 36.3652 17.2422 34.7451 17.8306C34.0157 14.9431 32.7 11.7421 30.625 9.63226C34.0338 10.5998 37.127 12.628 39.4102 15.5749ZM26.7721 9.06431C30.2838 9.7622 32.4279 14.8044 33.2982 18.3075C31.1907 18.9327 28.9999 19.2849 26.7721 19.3502V9.06431ZM26.7721 20.8709C29.1103 20.8062 31.4102 20.4434 33.6245 19.7963C33.9492 21.4965 34.1371 23.3054 34.1774 25.1694H26.7721V20.8709ZM26.7721 26.6901H34.1774C34.1359 28.6106 33.9377 30.4726 33.5946 32.2175C31.3891 31.5758 29.0991 31.2157 26.7721 31.1512V26.6901ZM26.7721 42.7955V32.6722C28.9862 32.7372 31.1642 33.0856 33.2604 33.704C32.3831 37.1483 30.2483 42.1045 26.7721 42.7955ZM30.6263 42.2259C32.6751 40.142 33.9773 36.9998 34.7068 34.1781C36.3097 34.7574 37.8565 35.4981 39.3251 36.3952C37.1217 39.1921 34.1077 41.2365 30.6263 42.2259ZM47.1758 50.3746C45.41 50.3746 43.9734 48.9381 43.9734 47.1723C43.9734 45.4139 45.4057 43.97 47.1758 43.97C48.9415 43.97 50.3781 45.4065 50.3781 47.1723C50.3781 48.9381 48.9415 50.3746 47.1758 50.3746Z" fill="#2C3488"/>
</svg>
