<svg width="60" height="50" viewBox="0 0 60 50" fill="none" xmlns="http://www.w3.org/2000/svg">
<path d="M30.0708 2.83136C28.1766 2.83136 26.6355 4.37249 26.6355 6.26659C26.6355 8.1607 28.1766 9.70171 30.0708 9.70171C31.965 9.70171 33.5059 8.1607 33.5059 6.26659C33.5058 4.37238 31.965 2.83136 30.0708 2.83136ZM30.0707 7.94378C29.1458 7.94378 28.3934 7.19144 28.3934 6.26659C28.3934 5.34175 29.1457 4.58929 30.0707 4.58929C30.9955 4.58941 31.7478 5.34175 31.7478 6.26659C31.7477 7.19132 30.9954 7.94378 30.0707 7.94378Z" fill="#2C3488"/>
<path d="M50.5553 33.6994C48.6611 33.6994 47.12 35.2404 47.12 37.1346C47.12 39.0287 48.6611 40.5697 50.5553 40.5697C52.4495 40.5697 53.9905 39.0287 53.9905 37.1346C53.9905 35.2404 52.4495 33.6994 50.5553 33.6994ZM50.5553 38.8118C49.6303 38.8118 48.878 38.0594 48.878 37.1346C48.878 36.2098 49.6303 35.4573 50.5553 35.4573C51.4801 35.4573 52.2326 36.2096 52.2326 37.1346C52.2326 38.0593 51.4802 38.8118 50.5553 38.8118Z" fill="#2C3488"/>
<path d="M9.44473 33.6994C7.55062 33.6994 6.00949 35.2404 6.00949 37.1346C6.00949 39.0287 7.55051 40.5697 9.44473 40.5697C11.3389 40.5697 12.88 39.0287 12.88 37.1346C12.8798 35.2404 11.3388 33.6994 9.44473 33.6994ZM9.44473 38.8118C8.51988 38.8118 7.76742 38.0594 7.76742 37.1346C7.76742 36.2098 8.51976 35.4573 9.44473 35.4573C10.3697 35.4573 11.122 36.2096 11.122 37.1346C11.1219 38.0593 10.3695 38.8118 9.44473 38.8118Z" fill="#2C3488"/>
<path d="M52.8159 31.2247C52.3441 31.1087 51.8685 31.397 51.7526 31.8684C51.6368 32.3398 51.925 32.8158 52.3963 32.9318C55.8381 33.7777 58.242 36.8468 58.242 40.3951C58.242 42.8432 57.0901 45.026 55.3015 46.4347V43.9554C55.3015 42.3788 54.0189 41.0963 52.4423 41.0963H48.6682C47.0916 41.0963 45.8091 42.379 45.8091 43.9554V46.4348C44.0204 45.0261 42.8685 42.8433 42.8685 40.3951C42.8685 36.8582 45.2643 33.7799 48.7141 32.9318C49.1855 32.8159 49.4736 32.3399 49.3579 31.8684C49.2421 31.3971 48.7661 31.1087 48.2945 31.2247C47.4254 31.4384 46.6112 31.7689 45.8645 32.1945L35.9339 16.9284C37.674 15.5479 38.8243 13.6376 39.2814 11.6132C39.3881 11.1396 39.0909 10.6692 38.6175 10.5622C38.1436 10.4554 37.6736 10.7527 37.5664 11.2261C37.1709 12.9792 36.1697 14.4888 34.8171 15.5539V13.0871C34.8171 11.5105 33.5345 10.228 31.958 10.228H28.1837C26.6071 10.228 25.3246 11.5107 25.3246 13.0871V15.5665C23.5359 14.1578 22.3841 11.9749 22.3841 9.52688C22.3841 5.28832 25.8325 1.84008 30.0709 1.84008C33.5498 1.84008 36.6039 4.18559 37.4981 7.54383C37.623 8.01293 38.1043 8.29172 38.5737 8.16703C39.0428 8.04211 39.3218 7.5607 39.1968 7.09148C38.0979 2.96449 34.3454 0.0820312 30.0709 0.0820312C24.863 0.0820312 20.6262 4.31883 20.6262 9.52676C20.6262 12.5108 22.0188 15.1743 24.1864 16.9063L14.1588 32.2161C12.7703 31.4128 11.1611 30.9503 9.44484 30.9503C4.2368 30.9504 0 35.1872 0 40.395C0 45.5993 4.23961 49.8397 9.44473 49.8397C14.1551 49.8397 18.05 46.3751 18.7687 41.8965H41.2313C41.9387 46.3057 45.7722 49.8397 50.5553 49.8397C55.7461 49.8397 60 45.6128 60 40.395C60 36.0353 57.0458 32.2643 52.8159 31.2247ZM27.0821 13.0871C27.0823 12.4799 27.5763 11.9858 28.1836 11.9858H31.9579C32.5651 11.9858 33.0592 12.4799 33.0592 13.0871V16.5973C32.105 17.0053 31.0918 17.2138 30.0707 17.2138C29.0113 17.2138 28.0014 16.9984 27.0821 16.6091V13.0871ZM30.0708 28.3548C31.0112 28.3548 31.7766 29.1199 31.7766 30.0606C31.7766 31.0012 31.0114 31.7664 30.0708 31.7664C29.1301 31.7664 28.365 31.0012 28.365 30.0606C28.365 29.1199 29.1302 28.3548 30.0708 28.3548ZM6.45633 47.477V43.955C6.45633 43.3478 6.95039 42.8537 7.55766 42.8537H11.3318C11.9391 42.8537 12.4331 43.3478 12.4331 43.955V47.477H12.4332C10.53 48.2832 8.36227 48.2844 6.45633 47.477ZM14.1911 46.4347V43.9554C14.1911 42.3788 12.9084 41.0963 11.3319 41.0963H7.55766C5.98102 41.0963 4.69852 42.379 4.69852 43.9554V46.4348C2.90977 45.026 1.75793 42.8433 1.75793 40.3951C1.75793 36.1566 5.20629 32.7083 9.44473 32.7083C13.6832 32.7083 17.1315 36.1566 17.1315 40.3951C17.1315 42.8432 15.9797 45.026 14.1911 46.4347ZM15.5931 33.2348L25.6552 17.8726C26.7442 18.4514 27.91 18.8141 29.1918 18.9316V26.7104C27.7062 27.1004 26.6071 28.4545 26.6071 30.0608C26.6071 30.2611 26.6251 30.4571 26.6579 30.6482L17.6289 35.6905C17.0923 34.7606 16.4024 33.9307 15.5931 33.2348ZM41.1161 40.1386H18.8829C18.8562 39.1446 18.6759 38.1887 18.3638 37.2935L27.3909 32.2522C28.0266 33.028 28.9918 33.5243 30.0708 33.5243C31.1354 33.5243 32.089 33.0411 32.7248 32.2829L41.632 37.2887C41.3201 38.1885 41.1425 39.1472 41.1161 40.1386ZM33.4761 30.6887C33.5136 30.4848 33.5343 30.2752 33.5343 30.0606C33.5343 28.4543 32.435 27.1002 30.9496 26.7102V18.9314C32.2059 18.8167 33.3468 18.4698 34.4598 17.8863L44.4238 33.2036C43.599 33.9061 42.9032 34.7461 42.3647 35.6838L33.4761 30.6887ZM53.5437 47.477C52.6246 47.8663 51.6145 48.0817 50.5552 48.0817C49.4958 48.0817 48.486 47.8663 47.5668 47.477V43.9552H47.5669C47.5669 43.3479 48.0609 42.8538 48.6682 42.8538H52.4423C53.0496 42.8538 53.5437 43.3479 53.5437 43.9552V47.477Z" fill="#2C3488"/>
</svg>
