<svg width="513" height="513" viewBox="0 0 513 513" fill="none" xmlns="http://www.w3.org/2000/svg">
<g clip-path="url(#clip0)">
<path d="M477.958 262.633C475.898 258.418 475.898 253.584 477.958 249.37L497.054 210.305C507.686 188.554 499.262 162.629 477.876 151.282L439.466 130.902C435.322 128.704 432.481 124.792 431.67 120.173L424.158 77.344C419.975 53.498 397.917 37.474 373.95 40.865L330.897 46.955C326.25 47.611 321.655 46.117 318.284 42.856L287.033 12.624C269.632 -4.20999 242.372 -4.21099 224.972 12.624L193.72 42.859C190.348 46.121 185.753 47.612 181.107 46.958L138.054 40.868C114.079 37.475 92.0289 53.501 87.8459 77.347L80.3339 120.174C79.5229 124.794 76.6819 128.705 72.5389 130.904L34.1289 151.284C12.7429 162.63 4.31889 188.557 14.9509 210.308L34.0459 249.372C36.1059 253.587 36.1059 258.421 34.0459 262.635L14.9499 301.699C4.31789 323.45 12.7419 349.375 34.1279 360.722L72.5379 381.102C76.6819 383.3 79.5229 387.212 80.3339 391.831L87.8459 434.66C91.6539 456.368 110.268 471.592 131.661 471.59C133.768 471.59 135.906 471.442 138.055 471.138L181.108 465.048C185.751 464.389 190.349 465.886 193.721 469.147L224.972 499.379C233.674 507.797 244.836 512.005 256.002 512.004C267.165 512.003 278.334 507.795 287.032 499.379L318.284 469.147C321.656 465.886 326.252 464.396 330.897 465.048L373.95 471.138C397.928 474.53 419.975 458.505 424.158 434.659L431.671 391.832C432.482 387.212 435.323 383.301 439.466 381.102L477.876 360.722C499.262 349.376 507.686 323.449 497.054 301.698L477.958 262.633ZM464.035 334.635L425.625 355.015C413.379 361.514 404.98 373.072 402.585 386.728L395.073 429.556C393.658 437.624 386.199 443.043 378.086 441.898L335.033 435.808C321.303 433.863 307.717 438.282 297.752 447.921L266.5 478.152C260.614 483.846 251.391 483.846 245.503 478.152L214.252 447.92C205.83 439.773 194.82 435.358 183.326 435.358C181.22 435.358 179.097 435.506 176.971 435.807L133.918 441.897C125.812 443.043 118.347 437.623 116.931 429.555L109.418 386.726C107.022 373.07 98.6239 361.511 86.3769 355.014L47.9669 334.634C40.7309 330.795 37.8809 322.024 41.4779 314.665L60.5739 275.6C66.6619 263.144 66.6619 248.858 60.5739 236.402L41.4779 197.337C37.8809 189.978 40.7309 181.207 47.9669 177.368L86.3769 156.988C98.6229 150.489 107.022 138.931 109.417 125.275L116.929 82.447C118.345 74.379 125.803 68.959 133.916 70.105L176.969 76.195C190.694 78.138 204.285 73.721 214.25 64.082L245.502 33.85C251.388 28.156 260.611 28.156 266.499 33.85L297.75 64.082C307.715 73.722 321.304 78.138 335.031 76.195L378.084 70.105C386.191 68.958 393.656 74.379 395.071 82.447L402.583 125.276C404.979 138.932 413.377 150.491 425.624 156.988L464.034 177.368C471.27 181.207 474.12 189.978 470.523 197.337L451.427 236.401C445.339 248.856 445.339 263.144 451.427 275.599L470.523 314.663C474.121 322.024 471.271 330.796 464.035 334.635Z" fill="#F57C00"/>
<path d="M363.886 148.116C358.121 142.35 348.771 142.35 343.005 148.116L148.116 343.006C142.35 348.772 142.35 358.121 148.116 363.887C150.999 366.77 154.778 368.212 158.556 368.212C162.334 368.212 166.114 366.771 168.996 363.887L363.885 168.998C369.653 163.231 369.653 153.883 363.886 148.116Z" fill="#F57C00"/>
<path d="M196.941 123.116C167.089 123.116 142.802 147.403 142.802 177.255C142.802 207.107 167.089 231.394 196.941 231.394C226.793 231.394 251.08 207.107 251.08 177.255C251.08 147.403 226.793 123.116 196.941 123.116ZM196.941 201.863C183.372 201.863 172.333 190.824 172.333 177.254C172.333 163.685 183.372 152.646 196.941 152.646C210.51 152.646 221.55 163.685 221.55 177.254C221.549 190.824 210.51 201.863 196.941 201.863Z" fill="#F57C00"/>
<path d="M315.061 280.61C285.209 280.61 260.922 304.897 260.922 334.749C260.922 364.601 285.209 388.888 315.061 388.888C344.913 388.888 369.2 364.601 369.2 334.749C369.2 304.897 344.913 280.61 315.061 280.61ZM315.061 359.357C301.492 359.357 290.452 348.318 290.452 334.749C290.452 321.18 301.491 310.141 315.061 310.141C328.63 310.141 339.669 321.18 339.669 334.749C339.669 348.318 328.63 359.357 315.061 359.357Z" fill="#F57C00"/>
</g>
<defs>
<clipPath id="clip0">
<rect width="512.003" height="512.003" fill="white"/>
</clipPath>
</defs>
</svg>
