<svg width="512" height="512" viewBox="0 0 512 512" fill="none" xmlns="http://www.w3.org/2000/svg">
<g clip-path="url(#clip0)">
<path d="M458.057 304.584C451.985 298.512 444.545 294.305 436.432 292.242C440.163 276.792 436.011 259.809 423.974 247.771C417.784 241.58 410.283 237.484 402.358 235.463C405.88 220.906 402.622 203.697 389.882 190.958C385.609 186.685 380.708 183.418 375.477 181.132L423.981 132.634C442.375 114.218 442.408 84.406 423.974 65.9732C405.562 47.5603 375.747 47.5283 357.306 65.9732L206.007 217.273L197.159 178.929C192.079 156.901 175.421 139.346 153.688 133.114C131.959 126.88 108.531 132.941 92.5474 148.932C92.5454 148.934 92.5434 148.936 92.5404 148.938C89.7269 151.754 88.1437 155.579 88.1477 159.561L88.3347 346.167L44.528 389.975C38.6691 395.834 38.6691 405.333 44.528 411.191L140.942 507.606C143.754 510.42 147.571 512.001 151.549 512.001H291.134C308.012 512.001 323.883 505.424 335.824 493.483L458.056 371.251C476.242 353.083 476.696 323.197 458.057 304.584V304.584ZM378.523 268.987C385.224 262.285 396.065 262.295 402.757 268.987C409.438 275.669 409.438 286.54 402.757 293.222L368.666 327.313C361.954 334.026 351.11 333.993 344.434 327.316C337.752 320.63 337.751 309.756 344.43 303.077L378.523 268.987ZM323.215 281.862C316.534 288.543 305.662 288.539 298.98 281.862C292.298 275.179 292.298 264.308 298.98 257.627L344.431 212.175C351.118 205.489 361.99 205.498 368.666 212.175C375.368 218.876 375.357 229.719 368.666 236.409C368.665 236.41 368.662 236.414 368.663 236.413C368.666 236.41 323.215 281.862 323.215 281.862V281.862ZM314.61 472.265C308.426 478.449 299.87 481.995 291.135 481.995H157.764L76.3529 400.583L113.952 362.983C116.769 360.166 118.349 356.344 118.346 352.359L118.16 166.469C126.022 161.002 136.026 159.261 145.416 161.955C156.668 165.181 165.293 174.269 167.922 185.672L182.86 250.394C183.502 253.177 184.916 255.656 186.863 257.609C186.865 257.614 198.231 268.987 198.231 268.987C223.708 294.463 223.708 335.918 198.231 361.396C192.372 367.255 192.372 376.753 198.231 382.612C204.09 388.472 213.59 388.47 219.447 382.612C256.623 345.436 256.623 284.947 219.447 247.771L218.694 247.018L378.524 87.1885C385.38 80.3304 396.233 80.6645 402.757 87.1895C409.446 93.8775 409.45 104.722 402.757 111.424L277.764 236.409C259.383 254.789 259.383 284.697 277.767 303.081C286.546 311.854 297.95 316.427 309.473 316.821C309.868 328.344 314.442 339.749 323.215 348.529C331.987 357.302 343.385 361.877 354.904 362.275C355.309 374.255 360.152 385.458 368.659 393.967C372.874 398.186 377.752 401.495 383.055 403.822L314.61 472.265ZM436.847 350.028C436.844 350.03 436.842 350.033 436.839 350.035L414.111 372.764C407.506 379.377 396.643 379.527 389.882 372.758C383.14 366.016 383.243 355.168 389.887 348.525L412.612 325.8C419.356 319.057 430.201 319.162 436.846 325.807C443.629 332.579 443.437 343.446 436.847 350.028V350.028Z" fill="#F57C00"/>
<path d="M199.758 94.2015C208.043 94.2015 214.76 87.4845 214.76 79.1992V14.9233C213.967 -4.98177 185.541 -4.96677 184.756 14.9233V79.2002C184.756 87.4855 191.473 94.2015 199.758 94.2015V94.2015Z" fill="#F57C00"/>
<path d="M124.873 89.8079C130.732 95.6678 140.233 95.6658 146.09 89.8079C151.948 83.949 151.948 74.4505 146.09 68.5916L130.021 52.5231C124.163 46.6642 114.664 46.6642 108.805 52.5231C102.946 58.382 102.946 67.8805 108.805 73.7394L124.873 89.8079Z" fill="#F57C00"/>
<path d="M274.643 89.8079L290.712 73.7394C296.571 67.8805 296.571 58.382 290.712 52.5231C284.854 46.6642 275.355 46.6642 269.496 52.5231L253.427 68.5916C247.568 74.4505 247.568 83.949 253.427 89.8079C259.286 95.6678 268.786 95.6658 274.643 89.8079V89.8079Z" fill="#F57C00"/>
</g>
<defs>
<clipPath id="clip0">
<rect width="512" height="512" fill="white"/>
</clipPath>
</defs>
</svg>
