<svg width="100" height="100" viewBox="0 0 312 312" fill="none" xmlns="http://www.w3.org/2000/svg">
<path d="M238.875 112.125V102.375C246.938 102.375 253.5 95.8133 253.5 87.75C253.5 79.6867 246.938 73.125 238.875 73.125H229.125C226.434 73.125 224.25 70.941 224.25 68.25C224.25 65.559 226.434 63.375 229.125 63.375H243.75V68.25H253.5V53.625H238.875V43.875H229.125V53.625C221.062 53.625 214.5 60.1867 214.5 68.25C214.5 76.3133 221.062 82.875 229.125 82.875H238.875C241.566 82.875 243.75 85.059 243.75 87.75C243.75 90.441 241.566 92.625 238.875 92.625H224.25V87.75H214.5V102.375H229.125V112.125H238.875Z" fill="#F57C00"/>
<path d="M287.625 78C287.625 48.4331 263.567 24.375 234 24.375C204.433 24.375 180.375 48.4331 180.375 78C180.375 107.567 204.433 131.625 234 131.625C263.567 131.625 287.625 107.567 287.625 78ZM190.125 78C190.125 53.8054 209.805 34.125 234 34.125C258.195 34.125 277.875 53.8054 277.875 78C277.875 102.195 258.195 121.875 234 121.875C209.805 121.875 190.125 102.195 190.125 78Z" fill="#F57C00"/>
<path d="M307.125 78C307.125 37.6789 274.321 4.875 234 4.875C193.679 4.875 160.875 37.6789 160.875 78C160.875 109.044 180.351 135.564 207.704 146.152L197.857 156H158.662L124.537 195H66.1196L6.17175 259.94L13.3331 266.555L70.3852 204.75H128.968L163.093 165.75H201.898L218.273 149.375C222.739 150.36 227.355 150.906 232.084 151.027L207.607 175.5H163.312L134.062 214.5H75.7867L4.875 295.542V307.125H287.625V127.549C299.686 114.504 307.125 97.1246 307.125 78V78ZM170.625 78C170.625 43.056 199.056 14.625 234 14.625C268.944 14.625 297.375 43.056 297.375 78C297.375 112.944 268.944 141.375 234 141.375C199.056 141.375 170.625 112.944 170.625 78ZM248.625 149.653V297.375H229.125V167.768L246.992 149.901C247.533 149.804 248.089 149.76 248.625 149.653V149.653ZM211.643 185.25L219.375 177.518V297.375H199.875V185.25H211.643ZM73.125 297.375H53.625V254.636L73.125 232.352V297.375ZM82.875 224.25H102.375V297.375H82.875V224.25ZM112.125 224.25H131.625V297.375H112.125V224.25ZM141.375 220.998L160.875 195V297.375H141.375V220.998ZM170.625 185.25H190.125V297.375H170.625V185.25ZM43.875 265.78V297.375H16.2289L43.875 265.78ZM258.375 297.375V146.859C265.439 144.349 271.996 140.795 277.875 136.364V297.375H258.375Z" fill="#F57C00"/>
<path d="M34.125 185.25H43.875V165.75H53.625V107.25H43.875V87.75H34.125V107.25H24.375V165.75H34.125V185.25ZM34.125 117H43.875V156H34.125V117Z" fill="#F57C00"/>
<path d="M73.125 160.875H82.875V141.375H92.625V92.625H82.875V73.125H73.125V92.625H63.375V141.375H73.125V160.875ZM73.125 102.375H82.875V131.625H73.125V102.375Z" fill="#F57C00"/>
<path d="M112.125 126.75H121.875V107.25H131.625V68.25H121.875V48.75H112.125V68.25H102.375V107.25H112.125V126.75ZM112.125 78H121.875V97.5H112.125V78Z" fill="#F57C00"/>
</svg>
