<svg width="391" height="386" viewBox="0 0 391 386" fill="none" xmlns="http://www.w3.org/2000/svg">
<path d="M385.086 89.1539C385.059 88.9911 385.065 88.8192 385.022 88.6594C384.904 88.2197 384.728 87.797 384.5 87.4019C384.423 87.2662 384.307 87.1576 384.216 87.0309C384.051 86.7763 383.865 86.5362 383.66 86.3132C383.534 86.1866 383.375 86.0991 383.238 85.9845C383.034 85.7989 382.815 85.6295 382.584 85.4779L382.545 85.4628L382.511 85.4387L337.848 60.1768C337.039 59.7195 336.123 59.4789 335.191 59.4789C334.259 59.4789 333.342 59.7195 332.533 60.1768L287.846 85.4357L287.813 85.4598L287.773 85.4749C287.541 85.6273 287.321 85.7977 287.116 85.9845C286.979 86.0961 286.811 86.1866 286.698 86.3102C286.489 86.5358 286.301 86.779 286.136 87.037C286.047 87.1636 285.934 87.2692 285.858 87.4019C285.629 87.7971 285.454 88.2198 285.335 88.6594C285.293 88.8132 285.299 88.979 285.271 89.1358C285.207 89.4246 285.168 89.7181 285.155 90.0134V100.764L245.411 76.1928C245.468 75.9287 245.505 75.6604 245.52 75.3906V31.2841C245.506 30.9939 245.468 30.7054 245.404 30.4216C245.377 30.2588 245.383 30.0869 245.34 29.9271C245.222 29.4884 245.046 29.0668 244.818 28.6726C244.711 28.5159 244.596 28.3649 244.473 28.2202C244.326 27.996 244.161 27.7833 243.981 27.5839C243.82 27.4435 243.651 27.3126 243.474 27.1919C243.293 27.0312 243.101 26.883 242.9 26.7486H242.869L242.848 26.7034L198.158 1.44448C197.348 0.98717 196.432 0.746586 195.5 0.746586C194.568 0.746586 193.652 0.98717 192.842 1.44448L148.152 26.7034L148.116 26.7305H148.085C147.882 26.8658 147.689 27.0149 147.508 27.1768C147.332 27.2966 147.164 27.4265 147.004 27.5658C146.821 27.7679 146.655 27.9837 146.506 28.2112C146.385 28.353 146.272 28.501 146.167 28.6545C145.938 29.0496 145.763 29.4723 145.644 29.912C145.602 30.0658 145.608 30.2316 145.58 30.3885C145.516 30.6772 145.478 30.9708 145.464 31.266V75.3906C145.479 75.6615 145.516 75.9307 145.574 76.1958L105.839 100.764V90.0164C105.825 89.7262 105.786 89.4377 105.723 89.1539C105.695 88.9911 105.701 88.8192 105.659 88.6594C105.54 88.2197 105.365 87.797 105.136 87.4019C105.06 87.2662 104.944 87.1576 104.852 87.0309C104.688 86.7763 104.502 86.5362 104.296 86.3132C104.171 86.1866 104.012 86.0991 103.875 85.9845C103.671 85.7989 103.452 85.6295 103.221 85.4779L103.181 85.4628L103.148 85.4387L58.4789 60.1768C57.6698 59.7195 56.7537 59.4789 55.8214 59.4789C54.889 59.4789 53.9729 59.7195 53.1638 60.1768L8.48592 85.4357L8.45232 85.4598L8.41261 85.4749C8.18037 85.6273 7.96076 85.7977 7.75585 85.9845C7.61839 86.0961 7.45038 86.1866 7.33736 86.3102C7.12889 86.5358 6.94082 86.779 6.7753 87.037C6.68671 87.1636 6.57369 87.2692 6.49732 87.4019C6.26912 87.7971 6.09355 88.2198 5.97497 88.6594C5.9322 88.8132 5.93831 88.979 5.91082 89.1358C5.84686 89.4246 5.80803 89.7181 5.79474 90.0134V134.12C5.79461 135.068 6.05294 135.998 6.5426 136.813C7.03226 137.628 7.73519 138.298 8.57756 138.752L50.4726 161.336V221.763L8.48592 245.502L8.45232 245.526L8.41261 245.541C8.18037 245.694 7.96076 245.864 7.75585 246.051C7.61839 246.162 7.45038 246.253 7.33736 246.377C7.12889 246.602 6.94082 246.845 6.7753 247.103C6.68671 247.23 6.57369 247.336 6.49732 247.468C6.26912 247.863 6.09355 248.286 5.97497 248.726C5.9322 248.88 5.93831 249.045 5.91082 249.202C5.84686 249.491 5.80803 249.785 5.79474 250.08V294.186C5.79521 295.134 6.05446 296.065 6.54523 296.88C7.036 297.695 7.74016 298.365 8.58367 298.818L53.2585 322.892C53.5096 323.013 53.7701 323.114 54.0374 323.194C54.181 323.245 54.3154 323.32 54.462 323.356C55.351 323.595 56.2886 323.595 57.1776 323.356C57.3243 323.317 57.4587 323.242 57.6022 323.194C57.8696 323.114 58.1301 323.013 58.3812 322.892L96.3143 302.449L145.495 334.774V356.646C145.495 357.594 145.753 358.524 146.243 359.339C146.732 360.154 147.435 360.824 148.278 361.278L192.952 385.352C193.204 385.472 193.464 385.573 193.731 385.653C193.875 385.704 194.009 385.78 194.156 385.816C195.045 386.055 195.983 386.055 196.872 385.816C197.018 385.777 197.153 385.701 197.296 385.653C197.563 385.573 197.824 385.472 198.075 385.352L242.738 361.272C243.58 360.818 244.283 360.148 244.773 359.333C245.262 358.518 245.521 357.587 245.52 356.64V334.768L294.701 302.443L332.634 322.886C332.885 323.007 333.146 323.108 333.413 323.188C333.557 323.239 333.691 323.314 333.838 323.35C334.727 323.589 335.664 323.589 336.553 323.35C336.7 323.311 336.834 323.236 336.978 323.188C337.245 323.108 337.506 323.007 337.757 322.886L382.416 298.818C383.259 298.364 383.962 297.694 384.451 296.879C384.941 296.064 385.199 295.134 385.199 294.186V250.083C385.185 249.793 385.146 249.504 385.083 249.22C385.056 249.057 385.062 248.886 385.019 248.726C384.9 248.286 384.725 247.863 384.497 247.468C384.42 247.333 384.304 247.224 384.212 247.097C384.048 246.843 383.862 246.603 383.657 246.38C383.531 246.253 383.372 246.165 383.235 246.051C383.031 245.865 382.812 245.696 382.581 245.544L382.542 245.529L382.508 245.505L340.521 221.766V161.336L382.413 138.761C383.256 138.307 383.959 137.637 384.448 136.822C384.938 136.007 385.196 135.077 385.196 134.129V90.0164C385.184 89.7264 385.147 89.4379 385.086 89.1539V89.1539ZM227.855 313.17L195.5 330.606L163.145 313.17L161.776 312.431L195.5 293.366L229.224 312.419L227.855 313.17ZM95.1474 130.99L61.164 149.301V117.223L95.1474 98.9125V130.99ZM55.8183 230.903L89.5421 249.968L88.1736 250.707L55.8183 268.143L23.4631 250.707L22.0946 249.968L55.8183 230.903ZM100.044 243.744L61.164 221.76V161.336L96.5801 142.25L145.479 173.661V212.164L100.044 243.744ZM156.171 72.2574V40.1802L190.154 58.5031V90.5713L156.171 72.2574ZM234.829 72.2574L200.846 90.5713V58.5031L234.829 40.1862V72.2574ZM195.5 151.62L229.224 170.684L227.855 171.423L195.5 188.86L163.145 171.423L161.776 170.684L195.5 151.62ZM156.171 179.692L190.154 198.006V230.092L156.171 211.772V179.692ZM200.846 198.006L234.829 179.692V211.772L200.846 230.092V198.006ZM245.52 173.661L294.42 142.241L329.836 161.336V221.763L290.956 243.747L245.52 212.164V173.661ZM329.83 117.223V149.301L295.853 130.99V98.9125L329.83 117.223ZM295.853 291.056V258.976L329.836 277.29V309.367L295.853 291.056ZM367.537 250.707L335.182 268.143L302.823 250.707L301.455 249.968L335.179 230.903L368.902 249.968L367.537 250.707ZM335.182 70.837L368.905 89.9018L367.537 90.6406L335.182 108.077L302.823 90.6406L301.455 89.9018L335.182 70.837ZM285.348 135.474L239.998 164.614L200.846 142.479V102.598L236.708 83.2674L285.158 113.219V134.117C285.161 134.575 285.225 135.032 285.348 135.474V135.474ZM195.5 12.1077L229.221 31.1755L196.978 48.5516L195.5 49.3477L194.022 48.5516L161.779 31.1725L195.5 12.1077ZM154.292 83.2765L190.154 102.607V142.479L151.002 164.614L105.652 135.474C105.774 135.032 105.837 134.575 105.839 134.117V113.219L154.292 83.2765ZM55.8183 70.837L89.5421 89.9018L88.1736 90.6406L55.8183 108.077L23.4631 90.6406L22.0946 89.9018L55.8183 70.837ZM16.4953 98.9125L50.4787 117.226V149.301L16.4953 130.99V98.9125ZM16.4953 258.979L50.4787 277.293V309.37L16.4953 291.056V258.979ZM61.1701 277.293L95.1535 258.979V291.056L61.1701 309.367V277.293ZM105.543 295.833C105.734 295.303 105.837 294.746 105.848 294.183V252.628L151.183 221.109L190.154 242.109V284.226L148.152 307.965L148.119 307.989L148.079 308.004C147.847 308.156 147.627 308.327 147.422 308.514C147.285 308.625 147.117 308.716 147.004 308.839C146.795 309.065 146.607 309.308 146.442 309.566C146.353 309.693 146.24 309.798 146.164 309.931C145.936 310.326 145.76 310.749 145.641 311.188C145.599 311.342 145.605 311.508 145.577 311.665C145.513 311.954 145.474 312.247 145.461 312.542V322.09L105.543 295.833ZM156.171 331.921V321.435L190.154 339.749V371.827L156.171 353.516V331.921ZM200.846 371.827V339.752L234.829 321.438V353.519L200.846 371.827ZM245.52 312.542C245.506 312.252 245.468 311.964 245.404 311.68C245.377 311.517 245.383 311.345 245.34 311.185C245.222 310.746 245.046 310.323 244.818 309.928C244.742 309.792 244.625 309.684 244.534 309.557C244.37 309.302 244.184 309.062 243.978 308.839C243.853 308.713 243.694 308.625 243.556 308.51C243.352 308.325 243.134 308.155 242.903 308.004L242.863 307.989L242.829 307.965L200.846 284.226V242.109L239.817 221.109L285.161 252.628V294.186C285.172 294.749 285.276 295.306 285.467 295.836L245.53 322.093L245.52 312.542ZM340.521 309.364V277.29L374.505 258.976V291.056L340.521 309.364ZM340.521 149.298V117.223L374.505 98.9125V130.99L340.521 149.298Z" fill="white"/>
</svg>
